<?xml version="1.0" encoding="utf-8"?>
<!-- Generator: Adobe Illustrator 26.5.0, SVG Export Plug-In . SVG Version: 6.00 Build 0)  -->
<svg version="1.1" id="Layer_1" xmlns="http://www.w3.org/2000/svg" xmlns:xlink="http://www.w3.org/1999/xlink" x="0px" y="0px"
	 viewBox="0 0 135 30" style="enable-background:new 0 0 135 30;" xml:space="preserve">
<style type="text/css">
	.st0{fill:#FFFFFF;}
</style>
<g>
	<path class="st0" d="M45.5,21.9c-0.6,2.1-1.7,5.1-2.3,6.5c-1.2,0.3-4.6,1-7.8,1c-10.4,0-15.5-6.9-15.5-14.2
		c0-8.7,6.6-14.7,16.3-14.7c3.7,0,6.7,0.8,8,1c0.2,1.9,0.5,4.6,0.8,6.7l-1.4,0.3c-0.9-2.9-1.9-4.6-4.1-5.5c-1.1-0.5-2.8-0.8-4.3-0.8
		c-6.9,0-10.4,5.2-10.4,12.1c0,8.1,4.2,13.4,10.9,13.4c4.2,0,6.4-2,8.6-6.3L45.5,21.9z"/>
	<path class="st0" d="M52,29.3c-1.6,0-2.7-1.2-2.7-2.9c0-1.6,1.1-2.9,2.7-2.9s2.8,1.2,2.8,2.9C54.8,28.2,53.6,29.3,52,29.3z"/>
	<path class="st0" d="M80.8,21.9c-0.2,1.1-1.4,5.6-1.8,6.8H58.1v-1.2c3.9-0.3,4.2-0.7,4.2-4.2V6.7c0-3.7-0.5-4-3.6-4.3V1.2h13.2
		c4.1,0,5.7,0,6.2-0.1c0,1,0.2,4.2,0.4,6.6l-1.3,0.2c-0.4-1.4-0.9-2.5-1.4-3.4c-0.7-1.3-1.6-1.6-4.1-1.6h-3.8
		c-1.4,0-1.5,0.1-1.5,1.4v9.3H71c3,0,3.3-0.6,3.8-3.5h1.4v8.9h-1.4c-0.6-3.1-0.9-3.5-3.9-3.5h-4.6v8.2c0,3,0.8,3.3,3,3.4h3.8
		c2.6,0,3-0.4,4-1.5c0.9-1,1.7-2.7,2.3-4L80.8,21.9z"/>
	<path class="st0" d="M87.3,29.3c-1.6,0-2.7-1.2-2.7-2.9c0-1.6,1.1-2.9,2.7-2.9c1.6,0,2.8,1.2,2.8,2.9
		C90.1,28.2,88.9,29.3,87.3,29.3z"/>
	<path class="st0" d="M105,1.2c3.1,0,5.5,0.6,7.3,1.8c1.7,1.3,2.9,3.3,2.9,6.1c0,6.2-5.3,8.7-9.4,8.7c-0.5,0-0.9,0-1.2-0.1l-2.8-0.7
		v6.5c0,3.6,0.3,3.7,4.2,4.1v1.3H93.8v-1.3c3.6-0.4,3.8-0.6,3.8-4.1V6.6c0-3.7-0.5-3.9-3.8-4.2V1.2H105z M101.7,15.4
		c0.5,0.3,1.6,0.5,2.9,0.5c2.7,0,6.2-1.4,6.2-6.8c0-4.7-3-6.5-6.4-6.5c-1.2,0-2,0.2-2.2,0.5c-0.3,0.3-0.5,0.8-0.5,1.8V15.4z"/>
</g>
</svg>
