<?xml version="1.0" encoding="UTF-8"?>
<svg version="1.1" xmlns="http://www.w3.org/2000/svg" width="1080" height="1080">
<path d="M0 0 C1.65 0 3.3 0 5 0 C5.33 0.99 5.66 1.98 6 3 C6.66 3 7.32 3 8 3 C8.12375 3.804375 8.2475 4.60875 8.375 5.4375 C8.58125 6.283125 8.7875 7.12875 9 8 C9.66 8.33 10.32 8.66 11 9 C11 11.64 11 14.28 11 17 C11.99 17.33 12.98 17.66 14 18 C14 21.63 14 25.26 14 29 C14.99 29 15.98 29 17 29 C17 35.6 17 42.2 17 49 C17.99 49.33 18.98 49.66 20 50 C20 60.23 20 70.46 20 81 C20.99 81 21.98 81 23 81 C23 101.13 23 121.26 23 142 C23.99 142 24.98 142 26 142 C25.94779297 143.69769531 25.94779297 143.69769531 25.89453125 145.4296875 C25.86639664 146.91144353 25.83909613 148.39321556 25.8125 149.875 C25.78736328 150.62136719 25.76222656 151.36773437 25.73632812 152.13671875 C25.6701236 154.56221828 25.6701236 154.56221828 26 158 C26.99 158.66 27.98 159.32 29 160 C29.30883789 161.84765625 29.30883789 161.84765625 29.22265625 164.0625 C29.19461914 165.25746094 29.19461914 165.25746094 29.16601562 166.4765625 C29.13185547 167.30929688 29.09769531 168.14203125 29.0625 169 C29.00263946 170.64552813 28.9514419 172.2914011 28.91015625 173.9375 C28.88058838 174.66839844 28.85102051 175.39929688 28.82055664 176.15234375 C28.82679526 178.25042405 28.82679526 178.25042405 31 180 C31.22091268 182.48113493 31.32516239 184.85967872 31.34375 187.34375 C31.3656842 188.43109436 31.3656842 188.43109436 31.38806152 189.54040527 C31.45041838 192.64671305 31.48995643 195.75322173 31.53173828 198.85986328 C31.56542687 201.12553931 31.61055052 203.39078966 31.65625 205.65625 C31.66416565 206.71410706 31.66416565 206.71410706 31.67224121 207.79333496 C31.64421053 211.84541177 31.64421053 211.84541177 34 215 C34.2784729 217.4803772 34.2784729 217.4803772 34.31884766 220.64306641 C34.34865219 222.41467636 34.34865219 222.41467636 34.37905884 224.22207642 C34.39638565 226.14242203 34.39638565 226.14242203 34.4140625 228.1015625 C34.44311172 230.06166763 34.44311172 230.06166763 34.4727478 232.06137085 C34.5241417 235.53667109 34.56372822 239.01201012 34.60089111 242.48748779 C34.64088553 246.03342341 34.69199859 249.57919662 34.7421875 253.125 C34.83903247 260.08321476 34.92340966 267.04153365 35 274 C35.66 274.33 36.32 274.66 37 275 C37.33 280.61 37.66 286.22 38 292 C38.66 292.33 39.32 292.66 40 293 C40.33142013 296.43471767 40.46573403 299.82689444 40.56640625 303.2734375 C40.64581314 305.1861079 40.81613904 307.09453191 41 309 C41.66 309.33 42.32 309.66 43 310 C43.33 320.23 43.66 330.46 44 341 C44.66 341.33 45.32 341.66 46 342 C46.33 362.79 46.66 383.58 47 405 C47.66 405.33 48.32 405.66 49 406 C49.33 412.27 49.66 418.54 50 425 C50.66 425.33 51.32 425.66 52 426 C52 431.61 52 437.22 52 443 C52.99 443.33 53.98 443.66 55 444 C54.98259766 445.93166016 54.98259766 445.93166016 54.96484375 447.90234375 C54.9554673 449.58072772 54.94636695 451.25911326 54.9375 452.9375 C54.92912109 453.78763672 54.92074219 454.63777344 54.91210938 455.51367188 C54.90888672 456.32255859 54.90566406 457.13144531 54.90234375 457.96484375 C54.89710693 458.7137085 54.89187012 459.46257324 54.88647461 460.23413086 C54.80658248 462.02667739 54.80658248 462.02667739 56 463 C57.34267413 463.08631874 58.68974322 463.10706473 60.03515625 463.09765625 C61.24848633 463.09282227 61.24848633 463.09282227 62.48632812 463.08789062 C63.33646484 463.07951172 64.18660156 463.07113281 65.0625 463.0625 C65.91650391 463.05798828 66.77050781 463.05347656 67.65039062 463.04882812 C69.76695663 463.03700373 71.88348685 463.01906769 74 463 C74 462.34 74 461.68 74 461 C83.9 461 93.8 461 104 461 C104 461.66 104 462.32 104 463 C105.72331543 462.99214478 105.72331543 462.99214478 107.48144531 462.98413086 C111.79784345 462.96584974 116.11423825 462.95448465 120.43066406 462.94506836 C122.28874286 462.94008044 124.14681782 462.93328772 126.00488281 462.92456055 C136.0495734 462.87860798 146.00302463 462.85789321 156 464 C156 464.66 156 465.32 156 466 C163.59 466 171.18 466 179 466 C179.33 466.66 179.66 467.32 180 468 C182.58605332 468.4683265 182.58605332 468.4683265 185.5625 468.625 C186.57441406 468.69976563 187.58632813 468.77453125 188.62890625 468.8515625 C189.41136719 468.90054687 190.19382812 468.94953125 191 469 C191 469.99 191 470.98 191 472 C197.6 472 204.2 472 211 472 C211.33 472.66 211.66 473.32 212 474 C221.24 474.33 230.48 474.66 240 475 C240.33 475.66 240.66 476.32 241 477 C243.55491823 477.39213038 243.55491823 477.39213038 246.5 477.5 C249.53125 477.65625 249.53125 477.65625 252 478 C252.33 478.66 252.66 479.32 253 480 C255.33247761 480.33926947 257.66585471 480.67240066 260 481 C260.66 481.66 261.32 482.32 262 483 C264.03060659 483.36894582 264.03060659 483.36894582 266.3515625 483.4140625 C267.20234375 483.45273437 268.053125 483.49140625 268.9296875 483.53125 C269.81914063 483.5621875 270.70859375 483.593125 271.625 483.625 C272.5221875 483.66367187 273.419375 483.70234375 274.34375 483.7421875 C276.5622927 483.83659357 278.78082403 483.92216748 281 484 C281.33 484.66 281.66 485.32 282 486 C288.27 486.33 294.54 486.66 301 487 C301 487.66 301 488.32 301 489 C303.97 489.33 306.94 489.66 310 490 C310 490.66 310 491.32 310 492 C311.98 492.33 313.96 492.66 316 493 C316 493.66 316 494.32 316 495 C319.63 495 323.26 495 327 495 C327.33 495.66 327.66 496.32 328 497 C330.71446979 497.31241455 333.33909361 497.51336592 336.0625 497.625 C336.82111328 497.66367187 337.57972656 497.70234375 338.36132812 497.7421875 C340.24047195 497.83673562 342.12020336 497.91946756 344 498 C344.33 498.99 344.66 499.98 345 501 C346.65 501 348.3 501 350 501 C350.33 501.66 350.66 502.32 351 503 C351.825 503.165 352.65 503.33 353.5 503.5 C354.325 503.665 355.15 503.83 356 504 C356.33 504.66 356.66 505.32 357 506 C359.98037463 506.39338548 359.98037463 506.39338548 363.4375 506.5 C369.77841561 506.77841561 369.77841561 506.77841561 372 509 C375.37687584 509.38643052 378.73384759 509.50750701 382.12890625 509.65625 C383.07636719 509.7696875 384.02382813 509.883125 385 510 C385.33 510.66 385.66 511.32 386 512 C386.825 512.165 387.65 512.33 388.5 512.5 C389.325 512.665 390.15 512.83 391 513 C391.33 513.66 391.66 514.32 392 515 C392.825 515.165 393.65 515.33 394.5 515.5 C395.325 515.665 396.15 515.83 397 516 C397.33 516.66 397.66 517.32 398 518 C400.32716 518.37400786 402.66117862 518.70764733 405 519 C405.33 519.33 405.66 519.66 406 520 C408.32817964 520.36760731 410.6618385 520.70241581 413 521 C413.33 521.99 413.66 522.98 414 524 C414.99 524.33 415.98 524.66 417 525 C417 525.66 417 526.32 417 527 C417.99 527.33 418.98 527.66 420 528 C420 528.66 420 529.32 420 530 C420.99 530.33 421.98 530.66 423 531 C423 531.66 423 532.32 423 533 C425.64 533 428.28 533 431 533 C431.33 533.66 431.66 534.32 432 535 C433.89533342 535.46523063 433.89533342 535.46523063 436.0625 535.625 C437.361875 535.74875 438.66125 535.8725 440 536 C440 539 440 539 438.88671875 540.67578125 C436.17035905 542.58229458 434.0892271 542.29320087 430.8125 542.1875 C429.72582031 542.16042969 428.63914062 542.13335938 427.51953125 542.10546875 C426.27236328 542.05326172 426.27236328 542.05326172 425 542 C424.67 541.01 424.34 540.02 424 539 C423.01 538.67 422.02 538.34 421 538 C421 537.34 421 536.68 421 536 C419.35 536 417.7 536 416 536 C415.67 535.34 415.34 534.68 415 534 C414.43490723 533.98018066 413.86981445 533.96036133 413.28759766 533.93994141 C410.73292003 533.84481764 408.17907459 533.73508942 405.625 533.625 C404.73554687 533.5940625 403.84609375 533.563125 402.9296875 533.53125 C401.65351562 533.47324219 401.65351562 533.47324219 400.3515625 533.4140625 C399.56604004 533.3826416 398.78051758 533.3512207 397.97119141 533.31884766 C396 533 396 533 394 531 C391.4036808 530.61984012 388.8337665 530.49404686 386.21484375 530.34375 C385.48394531 530.2303125 384.75304687 530.116875 384 530 C383.67 529.34 383.34 528.68 383 528 C381.10466658 527.53476937 381.10466658 527.53476937 378.9375 527.375 C377.638125 527.25125 376.33875 527.1275 375 527 C375 526.34 375 525.68 375 525 C372.36 525 369.72 525 367 525 C366.67 524.01 366.34 523.02 366 522 C356.76 522 347.52 522 338 522 C337.67 521.34 337.34 520.68 337 520 C334.28553021 519.68758545 331.66090639 519.48663408 328.9375 519.375 C327.79958008 519.31699219 327.79958008 519.31699219 326.63867188 519.2578125 C324.75952805 519.16326438 322.87979664 519.08053244 321 519 C320.67 518.01 320.34 517.02 320 516 C316.37 516 312.74 516 309 516 C308.67 515.34 308.34 514.68 308 514 C305.44508177 513.60786962 305.44508177 513.60786962 302.5 513.5 C299.46875 513.34375 299.46875 513.34375 297 513 C296.67 512.34 296.34 511.68 296 511 C280.16 510.67 264.32 510.34 248 510 C247.67 509.34 247.34 508.68 247 508 C217.3 507.505 217.3 507.505 187 507 C186.67 506.34 186.34 505.68 186 505 C148.05 504.67 110.1 504.34 71 504 C70.67 503.34 70.34 502.68 70 502 C68.18757948 501.97312721 66.37504767 501.95366285 64.5625 501.9375 C63.55316406 501.92589844 62.54382813 501.91429687 61.50390625 501.90234375 C59.05978933 501.71387324 59.05978933 501.71387324 58 503 C57.91156207 505.44830426 57.88471248 507.86820599 57.90234375 510.31640625 C57.9037587 511.04746078 57.90517365 511.77851532 57.90663147 512.53172302 C57.91224592 514.87535632 57.92480078 517.21889539 57.9375 519.5625 C57.94251314 521.14778508 57.94707637 522.73307166 57.95117188 524.31835938 C57.96222003 528.2122761 57.97949428 532.10612205 58 536 C58.66 536 59.32 536 60 536 C60.33 542.27 60.66 548.54 61 555 C61.66 555.33 62.32 555.66 63 556 C63 561.61 63 567.22 63 573 C63.99 573.33 64.98 573.66 66 574 C66.33 581.26 66.66 588.52 67 596 C67.66 596.33 68.32 596.66 69 597 C69.33 621.42 69.66 645.84 70 671 C70.66 671.33 71.32 671.66 72 672 C72 677.61 72 683.22 72 689 C72.99 689 73.98 689 75 689 C75 692.96 75 696.92 75 701 C75.99 701 76.98 701 78 701 C78 716.18 78 731.36 78 747 C77.01 747.33 76.02 747.66 75 748 C75 751.63 75 755.26 75 759 C74.01 759 73.02 759 72 759 C72 756.03 72 753.06 72 750 C71.01 750 70.02 750 69 750 C69.02356567 748.87972412 69.02356567 748.87972412 69.04760742 747.73681641 C69.10981077 744.36628739 69.1489442 740.99587888 69.1875 737.625 C69.22520508 735.8615625 69.22520508 735.8615625 69.26367188 734.0625 C69.27817383 732.38027344 69.27817383 732.38027344 69.29296875 730.6640625 C69.31653442 729.10872803 69.31653442 729.10872803 69.34057617 727.52197266 C69.22818604 726.68972168 69.1157959 725.8574707 69 725 C68.01 724.34 67.02 723.68 66 723 C66.33 719.7 66.66 716.4 67 713 C66.01 713 65.02 713 64 713 C64 710.03 64 707.06 64 704 C63.01 704 62.02 704 61 704 C61 702.02 61 700.04 61 698 C60.01 698 59.02 698 58 698 C58 693.38 58 688.76 58 684 C57.01 684 56.02 684 55 684 C55 672.45 55 660.9 55 649 C54.01 649 53.02 649 52 649 C52 645.04 52 641.08 52 637 C51.01 637 50.02 637 49 637 C49 633.37 49 629.74 49 626 C48.01 626 47.02 626 46 626 C46 621.05 46 616.1 46 611 C45.01 611 44.02 611 43 611 C43.01571045 610.16227051 43.0314209 609.32454102 43.04760742 608.46142578 C43.09870007 605.35663123 43.13633234 602.25205069 43.16479492 599.14697266 C43.18732251 597.14080626 43.2254357 595.13483474 43.26367188 593.12890625 C43.27333984 591.87207031 43.28300781 590.61523438 43.29296875 589.3203125 C43.3086792 588.15773926 43.32438965 586.99516602 43.34057617 585.79736328 C43.22818604 584.8742334 43.1157959 583.95110352 43 583 C42.01 582.34 41.02 581.68 40 581 C40.33 577.7 40.66 574.4 41 571 C39.68 570.67 38.36 570.34 37 570 C37 565.71 37 561.42 37 557 C36.34 556.67 35.68 556.34 35 556 C35 551.38 35 546.76 35 542 C34.01 542 33.02 542 32 542 C32 533.42 32 524.84 32 516 C31.01 516 30.02 516 29 516 C29 512.04 29 508.08 29 504 C23.47749918 504.32554769 23.47749918 504.32554769 18 505 C17.67 505.66 17.34 506.32 17 507 C13.63576389 507.3979204 10.29009676 507.50912623 6.90625 507.65625 C5.9471875 507.7696875 4.988125 507.883125 4 508 C3.67 508.66 3.34 509.32 3 510 C-4.59 510 -12.18 510 -20 510 C-20.33 510.99 -20.66 511.98 -21 513 C-21.71027344 513.04898438 -22.42054688 513.09796875 -23.15234375 513.1484375 C-24.07144531 513.22320313 -24.99054688 513.29796875 -25.9375 513.375 C-27.31228516 513.47941406 -27.31228516 513.47941406 -28.71484375 513.5859375 C-29.46894531 513.72257813 -30.22304688 513.85921875 -31 514 C-31.33 514.66 -31.66 515.32 -32 516 C-36.62 516 -41.24 516 -46 516 C-46.33 516.99 -46.66 517.98 -47 519 C-55.25 519.33 -63.5 519.66 -72 520 C-72.33 520.66 -72.66 521.32 -73 522 C-80.59 522 -88.18 522 -96 522 C-97 518 -97 518 -97 516 C-96.34 515.67 -95.68 515.34 -95 515 C-94.896875 514.236875 -94.79375 513.47375 -94.6875 512.6875 C-93.77004352 509.10107921 -91.83492925 508.2679434 -89 506 C-88.12056596 503.36539052 -88.12056596 503.36539052 -88 501 C-87.01 501 -86.02 501 -85 501 C-85 498.36 -85 495.72 -85 493 C-84.01 492.67 -83.02 492.34 -82 492 C-82 489.36 -82 486.72 -82 484 C-81.34 483.67 -80.68 483.34 -80 483 C-79.34444881 480.47266765 -79.34444881 480.47266765 -79 478 C-78.34 478 -77.68 478 -77 478 C-76.67 477.01 -76.34 476.02 -76 475 C-75.34 474.67 -74.68 474.34 -74 474 C-73.34444881 471.47266765 -73.34444881 471.47266765 -73 469 C-72.34 469 -71.68 469 -71 469 C-70.67 468.01 -70.34 467.02 -70 466 C-69.34 466 -68.68 466 -68 466 C-68 465.34 -68 464.68 -68 464 C-64.51088401 462.25544201 -60.50258205 462.53762734 -56.65234375 462.28125 C-54.07994595 462.28948002 -54.07994595 462.28948002 -53 461 C-51.06693502 460.90603943 -49.13041162 460.88256483 -47.19506836 460.88647461 C-45.95385727 460.88655014 -44.71264618 460.88662567 -43.43382263 460.88670349 C-42.0691626 460.89181089 -40.70450298 460.8970269 -39.33984375 460.90234375 C-37.95121817 460.904208 -36.56259193 460.90563187 -35.17396545 460.90663147 C-31.51278885 460.91045613 -27.8516517 460.92028597 -24.19049072 460.93133545 C-20.45707737 460.94155068 -16.72365766 460.94612933 -12.99023438 460.95117188 C-5.66013823 460.96190829 1.66992536 460.97898409 9 461 C9 461.66 9 462.32 9 463 C11.64 463.33 14.28 463.66 17 464 C17 463.01 17 462.02 17 461 C17.99 461 18.98 461 20 461 C20 456.05 20 451.1 20 446 C19.01 446 18.02 446 17 446 C17 442.37 17 438.74 17 435 C16.01 435 15.02 435 14 435 C14 431.37 14 427.74 14 424 C13.01 423.67 12.02 423.34 11 423 C11.33 418.38 11.66 413.76 12 409 C11.01 409 10.02 409 9 409 C9 400.42 9 391.84 9 383 C8.01 383 7.02 383 6 383 C6 378.05 6 373.1 6 368 C5.01 368 4.02 368 3 368 C2.8046875 365.94921875 2.609375 363.8984375 2.4140625 361.84765625 C2.27742188 361.23792969 2.14078125 360.62820313 2 360 C1.34 359.67 0.68 359.34 0 359 C0 354.38 0 349.76 0 345 C-0.99 345 -1.98 345 -3 345 C-3 335.43 -3 325.86 -3 316 C-3.99 316 -4.98 316 -6 316 C-6 311.38 -6 306.76 -6 302 C-6.99 302 -7.98 302 -9 302 C-9 299.03 -9 296.06 -9 293 C-12.63 293 -16.26 293 -20 293 C-20.33 293.99 -20.66 294.98 -21 296 C-21.66 296.33 -22.32 296.66 -23 297 C-23.165 297.825 -23.33 298.65 -23.5 299.5 C-23.665 300.325 -23.83 301.15 -24 302 C-24.66 302.33 -25.32 302.66 -26 303 C-26 305.31 -26 307.62 -26 310 C-26.66 310.33 -27.32 310.66 -28 311 C-28.103125 311.763125 -28.20625 312.52625 -28.3125 313.3125 C-29 316 -29 316 -31.5 317.8125 C-34.27617176 320.24165029 -34.40291915 320.77161932 -34.8125 324.25 C-34.874375 325.4875 -34.93625 326.725 -35 328 C-35.99 328 -36.98 328 -38 328 C-38 331.63 -38 335.26 -38 339 C-38.66 339.33 -39.32 339.66 -40 340 C-40.103125 340.763125 -40.20625 341.52625 -40.3125 342.3125 C-41 345 -41 345 -43.5 346.8125 C-47.09337312 349.95670148 -46.61778726 352.33700457 -47 357 C-47.66 357.33 -48.32 357.66 -49 358 C-49.35179197 360.3306218 -49.68330179 362.66435067 -50 365 C-51 367.3125 -51 367.3125 -52 369 C-52.33 369.66 -52.66 370.32 -53 371 C-53.66 371 -54.32 371 -55 371 C-55 372.65 -55 374.3 -55 376 C-55.99 376.33 -56.98 376.66 -58 377 C-58 378.65 -58 380.3 -58 382 C-58.99 382.33 -59.98 382.66 -61 383 C-60.94199219 383.74765625 -60.88398438 384.4953125 -60.82421875 385.265625 C-60.68770217 388.24558685 -60.63926304 391.03680357 -61 394 C-63.4375 396.375 -63.4375 396.375 -66 398 C-66.72197162 400.60611077 -66.72197162 400.60611077 -67 403 C-67.66 403.33 -68.32 403.66 -69 404 C-69.165 404.825 -69.33 405.65 -69.5 406.5 C-69.665 407.325 -69.83 408.15 -70 409 C-70.66 409.33 -71.32 409.66 -72 410 C-72.46751788 412.35599235 -72.46751788 412.35599235 -72.625 415.0625 C-72.73714844 416.44115234 -72.73714844 416.44115234 -72.8515625 417.84765625 C-72.90054687 418.55792969 -72.94953125 419.26820313 -73 420 C-73.99 420.33 -74.98 420.66 -76 421 C-76 422.65 -76 424.3 -76 426 C-76.66 426.33 -77.32 426.66 -78 427 C-78.165 427.825 -78.33 428.65 -78.5 429.5 C-78.665 430.325 -78.83 431.15 -79 432 C-79.66 432.33 -80.32 432.66 -81 433 C-81.65555119 435.52733235 -81.65555119 435.52733235 -82 438 C-82.66 438 -83.32 438 -84 438 C-84 440.64 -84 443.28 -84 446 C-84.66 446.33 -85.32 446.66 -86 447 C-86.103125 448.258125 -86.20625 449.51625 -86.3125 450.8125 C-86.64167381 454.3029846 -86.7056363 454.74243176 -89.5 457.1875 C-90.325 457.785625 -91.15 458.38375 -92 459 C-92.87943404 461.63460948 -92.87943404 461.63460948 -93 464 C-93.99 464 -94.98 464 -96 464 C-95.95359375 464.74765625 -95.9071875 465.4953125 -95.859375 466.265625 C-95.56226165 474.37257503 -95.56226165 474.37257503 -97.875 477.6875 C-100 479 -100 479 -102 479 C-102 480.65 -102 482.3 -102 484 C-102.66 484.33 -103.32 484.66 -104 485 C-104.165 485.825 -104.33 486.65 -104.5 487.5 C-104.665 488.325 -104.83 489.15 -105 490 C-105.66 490.33 -106.32 490.66 -107 491 C-107.39308423 493.22297513 -107.39308423 493.22297513 -107.5 495.8125 C-107.71418531 499.43758635 -108.28400342 501.81018378 -110 505 C-110 505.66 -110 506.32 -110 507 C-110.66 507.33 -111.32 507.66 -112 508 C-112.65555119 510.52733235 -112.65555119 510.52733235 -113 513 C-113.99 513 -114.98 513 -116 513 C-116 514.98 -116 516.96 -116 519 C-116.99 519 -117.98 519 -119 519 C-119 522.63 -119 526.26 -119 530 C-119.66 530.33 -120.32 530.66 -121 531 C-121.103125 531.763125 -121.20625 532.52625 -121.3125 533.3125 C-122.22995648 536.89892079 -124.16507075 537.7320566 -127 540 C-127.72197162 542.60611077 -127.72197162 542.60611077 -128 545 C-128.66 545.33 -129.32 545.66 -130 546 C-130.39205568 548.29104269 -130.39205568 548.29104269 -130.5 550.9375 C-130.77862595 555.77862595 -130.77862595 555.77862595 -133 558 C-133.71247732 559.6476038 -134.37400383 561.31763529 -135 563 C-135.66666667 564.66666667 -136.33333333 566.33333333 -137 568 C-137.66 568 -138.32 568 -139 568 C-139 569.65 -139 571.3 -139 573 C-139.99 573.33 -140.98 573.66 -142 574 C-142 576.64 -142 579.28 -142 582 C-142.99 582.33 -143.98 582.66 -145 583 C-144.896875 584.2375 -144.79375 585.475 -144.6875 586.75 C-144.671875 588.97265625 -144.671875 588.97265625 -145 591 C-147.4375 593.1875 -147.4375 593.1875 -150 595 C-150.72197162 597.60611077 -150.72197162 597.60611077 -151 600 C-151.66 600.33 -152.32 600.66 -153 601 C-153.46751788 603.35599235 -153.46751788 603.35599235 -153.625 606.0625 C-153.69976562 606.98160156 -153.77453125 607.90070312 -153.8515625 608.84765625 C-153.90054687 609.55792969 -153.94953125 610.26820313 -154 611 C-154.99 611.33 -155.98 611.66 -157 612 C-157 613.65 -157 615.3 -157 617 C-157.66 617.33 -158.32 617.66 -159 618 C-159.65555119 620.52733235 -159.65555119 620.52733235 -160 623 C-160.66 623 -161.32 623 -162 623 C-162.33 623.99 -162.66 624.98 -163 626 C-163.66 626 -164.32 626 -165 626 C-165 629.63 -165 633.26 -165 637 C-165.99 637.33 -166.98 637.66 -168 638 C-168 639.65 -168 641.3 -168 643 C-168.66 643.33 -169.32 643.66 -170 644 C-170.165 644.825 -170.33 645.65 -170.5 646.5 C-170.665 647.325 -170.83 648.15 -171 649 C-171.66 649.33 -172.32 649.66 -173 650 C-173.65555119 652.52733235 -173.65555119 652.52733235 -174 655 C-174.99 655 -175.98 655 -177 655 C-177 657.97 -177 660.94 -177 664 C-177.99 664 -178.98 664 -180 664 C-180 666.64 -180 669.28 -180 672 C-180.66 672.33 -181.32 672.66 -182 673 C-182.65555119 675.52733235 -182.65555119 675.52733235 -183 678 C-183.66 678 -184.32 678 -185 678 C-185.33 678.99 -185.66 679.98 -186 681 C-186.66 681.33 -187.32 681.66 -188 682 C-188.39205568 684.29104269 -188.39205568 684.29104269 -188.5 686.9375 C-188.77862595 691.77862595 -188.77862595 691.77862595 -191 694 C-192.18197973 696.57254411 -192.96889972 698.74497768 -193.3125 701.5625 C-194 704 -194 704 -196.5 705.6875 C-199.93043713 708.86065434 -199.71552875 711.43637548 -199.95703125 715.953125 C-199.97121094 716.62859375 -199.98539063 717.3040625 -200 718 C-200.99 718.33 -201.98 718.66 -203 719 C-202.896875 720.2375 -202.79375 721.475 -202.6875 722.75 C-202.671875 724.984375 -202.671875 724.984375 -203 727 C-204.65002828 728.35386936 -206.3174387 729.68678142 -208 731 C-208.65251302 733.6679363 -208.77463371 736.25053127 -209 739 C-209.66 739.33 -210.32 739.66 -211 740 C-211.08131463 741.43655854 -211.13933559 742.8744483 -211.1875 744.3125 C-211.22230469 745.11300781 -211.25710938 745.91351562 -211.29296875 746.73828125 C-211.14543022 749.00312281 -211.14543022 749.00312281 -210 750.75 C-206.83689474 752.72694079 -203.44043151 752.57660253 -199.8125 752.6875 C-198.68811523 752.73874023 -198.68811523 752.73874023 -197.54101562 752.79101562 C-195.69453162 752.87334294 -193.84729006 752.93835281 -192 753 C-191.67 753.99 -191.34 754.98 -191 756 C-184.4 756 -177.8 756 -171 756 C-170.67 756.66 -170.34 757.32 -170 758 C-169.175 758.165 -168.35 758.33 -167.5 758.5 C-166.675 758.665 -165.85 758.83 -165 759 C-164.67 759.66 -164.34 760.32 -164 761 C-162.35008418 761.70710678 -160.6792238 762.36562656 -159 763 C-158.08968018 763.50257324 -157.17936035 764.00514648 -156.24145508 764.52294922 C-152.72887385 766.12354547 -150.16177221 766.48669949 -146.32421875 766.6953125 C-144.46506836 766.80939453 -144.46506836 766.80939453 -142.56835938 766.92578125 C-141.28767578 766.99152344 -140.00699219 767.05726563 -138.6875 767.125 C-136.1286878 767.269623 -133.57007606 767.4178542 -131.01171875 767.5703125 C-129.88209717 767.62977051 -128.75247559 767.68922852 -127.58862305 767.75048828 C-125 768 -125 768 -124 769 C-121.67182036 769.36760731 -119.3381615 769.70241581 -117 770 C-116.67 770.99 -116.34 771.98 -116 773 C-115.01 773.33 -114.02 773.66 -113 774 C-113 774.66 -113 775.32 -113 776 C-115.97 776.33 -118.94 776.66 -122 777 C-122 777.66 -122 778.32 -122 779 C-141.75533448 779.88573633 -161.23884356 780.02368965 -181 779 C-181 778.34 -181 777.68 -181 777 C-182.02480469 777.01160156 -183.04960937 777.02320313 -184.10546875 777.03515625 C-185.466144 777.04454022 -186.82682124 777.05363977 -188.1875 777.0625 C-188.86103516 777.07087891 -189.53457031 777.07925781 -190.22851562 777.08789062 C-193.95434131 777.10606538 -197.3788042 776.89299392 -201 776 C-201 775.34 -201 774.68 -201 774 C-201.99 774 -202.98 774 -204 774 C-204 773.01 -204 772.02 -204 771 C-204.99 770.67 -205.98 770.34 -207 770 C-207 768.35 -207 766.7 -207 765 C-212.28 765 -217.56 765 -223 765 C-223 767.64 -223 770.28 -223 773 C-223.99 773.33 -224.98 773.66 -226 774 C-225.896875 775.2375 -225.79375 776.475 -225.6875 777.75 C-225.671875 779.97265625 -225.671875 779.97265625 -226 782 C-228.4375 784.1875 -228.4375 784.1875 -231 786 C-231.72197162 788.60611077 -231.72197162 788.60611077 -232 791 C-232.66 791.33 -233.32 791.66 -234 792 C-234.65555119 794.52733235 -234.65555119 794.52733235 -235 797 C-235.99 797.33 -236.98 797.66 -238 798 C-238.66 797.67 -239.32 797.34 -240 797 C-239.67 797.515625 -239.34 798.03125 -239 798.5625 C-237.67989123 801.78026512 -237.86757895 804.5570528 -238 808 C-238.99 808.33 -239.98 808.66 -241 809 C-241 810.65 -241 812.3 -241 814 C-241.66 814.33 -242.32 814.66 -243 815 C-243.165 815.825 -243.33 816.65 -243.5 817.5 C-243.665 818.325 -243.83 819.15 -244 820 C-244.66 820.33 -245.32 820.66 -246 821 C-246.01981934 821.56509277 -246.03963867 822.13018555 -246.06005859 822.71240234 C-246.15518236 825.26707997 -246.26491058 827.82092541 -246.375 830.375 C-246.4059375 831.26445313 -246.436875 832.15390625 -246.46875 833.0703125 C-246.50742187 833.92109375 -246.54609375 834.771875 -246.5859375 835.6484375 C-246.6173584 836.43395996 -246.6487793 837.21948242 -246.68115234 838.02880859 C-247 840 -247 840 -249 842 C-249.16681109 845.08347826 -249.16681109 845.08347826 -249 848 C-249.99 848.33 -250.98 848.66 -252 849 C-252.33 849.99 -252.66 850.98 -253 852 C-253.66 852 -254.32 852 -255 852 C-255 853.65 -255 855.3 -255 857 C-255.99 857.33 -256.98 857.66 -258 858 C-258.33 858.99 -258.66 859.98 -259 861 C-259.66 861 -260.32 861 -261 861 C-260.938125 861.763125 -260.87625 862.52625 -260.8125 863.3125 C-261 866 -261 866 -262.375 867.8125 C-264 869 -264 869 -266 869 C-266.33 869.99 -266.66 870.98 -267 872 C-267.66 872.33 -268.32 872.66 -269 873 C-269.65555119 875.52733235 -269.65555119 875.52733235 -270 878 C-271.65 878 -273.3 878 -275 878 C-274.67 878.515625 -274.34 879.03125 -274 879.5625 C-272.65707286 882.8358849 -272.74047344 885.49639145 -273 889 C-273.66 889.66 -274.32 890.32 -275 891 C-276.50910494 894.28452252 -277.39016135 897.44260787 -278 901 C-278.99 901 -279.98 901 -281 901 C-281 902.98 -281 904.96 -281 907 C-282.65 907.33 -284.3 907.66 -286 908 C-286 908.99 -286 909.98 -286 911 C-285.34 910.34 -284.68 909.68 -284 909 C-284 911.97 -284 914.94 -284 918 C-284.66 918.33 -285.32 918.66 -286 919 C-286.103125 919.763125 -286.20625 920.52625 -286.3125 921.3125 C-287.22995648 924.89892079 -289.16507075 925.7320566 -292 928 C-292.87943404 930.63460948 -292.87943404 930.63460948 -293 933 C-294.65 933 -296.3 933 -298 933 C-297.67 933.515625 -297.34 934.03125 -297 934.5625 C-295.67989123 937.78026512 -295.86757895 940.5570528 -296 944 C-296.99 944.33 -297.98 944.66 -299 945 C-298.938125 945.763125 -298.87625 946.52625 -298.8125 947.3125 C-299 950 -299 950 -300.375 951.8125 C-302 953 -302 953 -304 953 C-304 954.65 -304 956.3 -304 958 C-304.99 958.33 -305.98 958.66 -307 959 C-307 963.62 -307 968.24 -307 973 C-307.66 973.33 -308.32 973.66 -309 974 C-309.103125 974.763125 -309.20625 975.52625 -309.3125 976.3125 C-310.24064898 979.94071875 -312.03847704 980.79607594 -315 983 C-316.841364 985.22046836 -318.61238991 987.43796537 -320.25 989.8125 C-323.24904273 991.84756471 -326.45949473 991.17412321 -330 991 C-330.495 989.515 -330.495 989.515 -331 988 C-331.66 988 -332.32 988 -333 988 C-333 985.03 -333 982.06 -333 979 C-332.01 979 -331.02 979 -330 979 C-330 977.02 -330 975.04 -330 973 C-329.01 973 -328.02 973 -327 973 C-327 971.02 -327 969.04 -327 967 C-326.01 967 -325.02 967 -324 967 C-324.33 964.36 -324.66 961.72 -325 959 C-324.01 958.67 -323.02 958.34 -322 958 C-322 955.36 -322 952.72 -322 950 C-321.01 949.67 -320.02 949.34 -319 949 C-319 946.36 -319 943.72 -319 941 C-318.01 941 -317.02 941 -316 941 C-316 939.35 -316 937.7 -316 936 C-315.01 936 -314.02 936 -313 936 C-313 933.03 -313 930.06 -313 927 C-312.01 927 -311.02 927 -310 927 C-310 923.04 -310 919.08 -310 915 C-309.01 915 -308.02 915 -307 915 C-307 912.36 -307 909.72 -307 907 C-306.01 907 -305.02 907 -304 907 C-304 905.02 -304 903.04 -304 901 C-303.01 901 -302.02 901 -301 901 C-301 898.03 -301 895.06 -301 892 C-300.01 892 -299.02 892 -298 892 C-298.33 889.36 -298.66 886.72 -299 884 C-297.68 883.67 -296.36 883.34 -295 883 C-295.33 880.36 -295.66 877.72 -296 875 C-295.01 874.67 -294.02 874.34 -293 874 C-292.67 866.74 -292.34 859.48 -292 852 C-295.96 852 -299.92 852 -304 852 C-304.33 851.01 -304.66 850.02 -305 849 C-308.63 849 -312.26 849 -316 849 C-316 848.01 -316 847.02 -316 846 C-317.98 846 -319.96 846 -322 846 C-322 845.01 -322 844.02 -322 843 C-324.64 843 -327.28 843 -330 843 C-330.495 841.515 -330.495 841.515 -331 840 C-337.6 840 -344.2 840 -351 840 C-351 839.01 -351 838.02 -351 837 C-354.63 837 -358.26 837 -362 837 C-362 836.01 -362 835.02 -362 834 C-363.98 834 -365.96 834 -368 834 C-368 833.01 -368 832.02 -368 831 C-370.97 831 -373.94 831 -377 831 C-377 830.34 -377 829.68 -377 829 C-379.64 829 -382.28 829 -385 829 C-385.495 827.515 -385.495 827.515 -386 826 C-387.65 826 -389.3 826 -391 826 C-391 825.01 -391 824.02 -391 823 C-392.98 823 -394.96 823 -397 823 C-397 822.01 -397 821.02 -397 820 C-398.98 820 -400.96 820 -403 820 C-403 819.01 -403 818.02 -403 817 C-405.64 817 -408.28 817 -411 817 C-411.495 815.515 -411.495 815.515 -412 814 C-413.65 814 -415.3 814 -417 814 C-417 813.01 -417 812.02 -417 811 C-418.98 811 -420.96 811 -423 811 C-423 809.02 -423 807.04 -423 805 C-424.98 805 -426.96 805 -429 805 C-429 804.34 -429 803.68 -429 803 C-431.97 802.67 -434.94 802.34 -438 802 C-438 801.34 -438 800.68 -438 800 C-439.65 800 -441.3 800 -443 800 C-443 799.01 -443 798.02 -443 797 C-442.34 797 -441.68 797 -441 797 C-441 796.01 -441 795.02 -441 794 C-437.04 794 -433.08 794 -429 794 C-429 794.66 -429 795.32 -429 796 C-428.01 796.33 -427.02 796.66 -426 797 C-426 797.66 -426 798.32 -426 799 C-424.35 799 -422.7 799 -421 799 C-420.67 799.99 -420.34 800.98 -420 802 C-414.39 802 -408.78 802 -403 802 C-402.67 802.66 -402.34 803.32 -402 804 C-398.95418731 804.46954261 -398.95418731 804.46954261 -395.4375 804.625 C-394.23996094 804.69976563 -393.04242188 804.77453125 -391.80859375 804.8515625 C-390.88175781 804.90054688 -389.95492187 804.94953125 -389 805 C-388.505 806.485 -388.505 806.485 -388 808 C-387.01 808.33 -386.02 808.66 -385 809 C-385 809.66 -385 810.32 -385 811 C-383.35 811 -381.7 811 -380 811 C-379.505 812.485 -379.505 812.485 -379 814 C-374.38 814 -369.76 814 -365 814 C-364.67 814.66 -364.34 815.32 -364 816 C-357.73 816.33 -351.46 816.66 -345 817 C-344.67 817.66 -344.34 818.32 -344 819 C-341.44508177 819.39213038 -341.44508177 819.39213038 -338.5 819.5 C-335.46875 819.65625 -335.46875 819.65625 -333 820 C-332.67 820.66 -332.34 821.32 -332 822 C-328.95418731 822.46954261 -328.95418731 822.46954261 -325.4375 822.625 C-324.23996094 822.69976563 -323.04242188 822.77453125 -321.80859375 822.8515625 C-320.88175781 822.90054688 -319.95492187 822.94953125 -319 823 C-319 823.66 -319 824.32 -319 825 C-318.16855469 824.98839844 -317.33710938 824.97679687 -316.48046875 824.96484375 C-314.85044922 824.95130859 -314.85044922 824.95130859 -313.1875 824.9375 C-312.10855469 824.92589844 -311.02960938 824.91429687 -309.91796875 824.90234375 C-307 825 -307 825 -304 826 C-304 826.66 -304 827.32 -304 828 C-295.42 828 -286.84 828 -278 828 C-278 827.34 -278 826.68 -278 826 C-277.34 825.67 -276.68 825.34 -276 825 C-275.53476937 823.10466658 -275.53476937 823.10466658 -275.375 820.9375 C-275.25125 819.638125 -275.1275 818.33875 -275 817 C-274.01 817 -273.02 817 -272 817 C-272 813.04 -272 809.08 -272 805 C-271.01 805 -270.02 805 -269 805 C-269.33 802.36 -269.66 799.72 -270 797 C-269.01 797 -268.02 797 -267 797 C-267 796.01 -267 795.02 -267 794 C-266.01 793.67 -265.02 793.34 -264 793 C-264 789.37 -264 785.74 -264 782 C-263.01 782 -262.02 782 -261 782 C-261 779.03 -261 776.06 -261 773 C-260.01 773 -259.02 773 -258 773 C-258 768.38 -258 763.76 -258 759 C-258.99 759 -259.98 759 -261 759 C-261 758.01 -261 757.02 -261 756 C-261.84304688 756.02320313 -262.68609375 756.04640625 -263.5546875 756.0703125 C-265.19824219 756.09738281 -265.19824219 756.09738281 -266.875 756.125 C-267.96554687 756.14820313 -269.05609375 756.17140625 -270.1796875 756.1953125 C-273 756 -273 756 -275 754 C-277.32275177 753.59952556 -279.65739357 753.2602896 -282 753 C-282 752.34 -282 751.68 -282 751 C-282.99 750.67 -283.98 750.34 -285 750 C-285 749.34 -285 748.68 -285 748 C-287.64 748 -290.28 748 -293 748 C-293.33 747.01 -293.66 746.02 -294 745 C-298.62 745 -303.24 745 -308 745 C-308.33 744.34 -308.66 743.68 -309 743 C-310.89533342 742.53476937 -310.89533342 742.53476937 -313.0625 742.375 C-314.361875 742.25125 -315.66125 742.1275 -317 742 C-317 741.01 -317 740.02 -317 739 C-318.65 739 -320.3 739 -322 739 C-322.495 737.515 -322.495 737.515 -323 736 C-324.65 736 -326.3 736 -328 736 C-328.495 734.515 -328.495 734.515 -329 733 C-331.64 733 -334.28 733 -337 733 C-337.33 732.34 -337.66 731.68 -338 731 C-339.258125 730.896875 -340.51625 730.79375 -341.8125 730.6875 C-345.3029846 730.35832619 -345.74243176 730.2943637 -348.1875 727.5 C-348.785625 726.675 -349.38375 725.85 -350 725 C-352.63460948 724.12056596 -352.63460948 724.12056596 -355 724 C-355 723.34 -355 722.68 -355 722 C-356.3921875 722.061875 -356.3921875 722.061875 -357.8125 722.125 C-361 722 -361 722 -364 720 C-365.65549531 719.61500109 -367.3222433 719.27206865 -369 719 C-369 718.01 -369 717.02 -369 716 C-370.65 716 -372.3 716 -374 716 C-374.495 714.515 -374.495 714.515 -375 713 C-376.65 713 -378.3 713 -380 713 C-380.495 711.515 -380.495 711.515 -381 710 C-382.65 710 -384.3 710 -386 710 C-386.495 708.515 -386.495 708.515 -387 707 C-388.65 707 -390.3 707 -392 707 C-392.33 706.34 -392.66 705.68 -393 705 C-393.763125 704.896875 -394.52625 704.79375 -395.3125 704.6875 C-398.94071875 703.75935102 -399.79607594 701.96152296 -402 699 C-402.9075 698.278125 -403.815 697.55625 -404.75 696.8125 C-405.4925 696.214375 -406.235 695.61625 -407 695 C-407 694.34 -407 693.68 -407 693 C-407.99 692.67 -408.98 692.34 -410 692 C-410 691.34 -410 690.68 -410 690 C-410.99 689.67 -411.98 689.34 -413 689 C-413 688.34 -413 687.68 -413 687 C-413.66 687 -414.32 687 -415 687 C-416.33895632 685.33784732 -417.67130142 683.67036393 -419 682 C-419.825 681.34 -420.65 680.68 -421.5 680 C-424.12899543 677.89680365 -425.90319635 675.62100457 -428 673 C-429.66270287 671.66172696 -431.32916181 670.32810215 -433 669 C-436 665.5862069 -436 665.5862069 -436 662 C-436.99 661.34 -437.98 660.68 -439 660 C-439 659.34 -439 658.68 -439 658 C-439.99 657.67 -440.98 657.34 -442 657 C-442 656.34 -442 655.68 -442 655 C-442.99 654.67 -443.98 654.34 -445 654 C-445 653.34 -445 652.68 -445 652 C-445.66 652 -446.32 652 -447 652 C-447.12375 651.195625 -447.2475 650.39125 -447.375 649.5625 C-447.58125 648.716875 -447.7875 647.87125 -448 647 C-448.66 646.67 -449.32 646.34 -450 646 C-450 634.45 -450 622.9 -450 611 C-449.34 610.67 -448.68 610.34 -448 610 C-448.33 609.34 -448.66 608.68 -449 608 C-449.13415472 605.3276379 -449.04318541 602.67749512 -449 600 C-448.01 600 -447.02 600 -446 600 C-446 599.34 -446 598.68 -446 598 C-445.0409375 597.8453125 -445.0409375 597.8453125 -444.0625 597.6875 C-443.381875 597.460625 -442.70125 597.23375 -442 597 C-441.67 596.01 -441.34 595.02 -441 594 C-440.34 594 -439.68 594 -439 594 C-438.67 593.01 -438.34 592.02 -438 591 C-437.34 591 -436.68 591 -436 591 C-436 589.35 -436 587.7 -436 586 C-435.01 585.67 -434.02 585.34 -433 585 C-432.67 584.01 -432.34 583.02 -432 582 C-431.34 582 -430.68 582 -430 582 C-429.67 581.01 -429.34 580.02 -429 579 C-428.34 579 -427.68 579 -427 579 C-427 577.35 -427 575.7 -427 574 C-421.25 571 -421.25 571 -419 571 C-418.67 570.01 -418.34 569.02 -418 568 C-416.3364521 567.32558869 -414.66933058 566.6599679 -413 566 C-411.64748503 564.68612831 -410.31054623 563.35573748 -409 562 C-408.34 562 -407.68 562 -407 562 C-407 561.01 -407 560.02 -407 559 C-406.01 559 -405.02 559 -404 559 C-404 558.01 -404 557.02 -404 556 C-402.7934375 555.814375 -402.7934375 555.814375 -401.5625 555.625 C-400.716875 555.41875 -399.87125 555.2125 -399 555 C-398.67 554.34 -398.34 553.68 -398 553 C-397.01 553 -396.02 553 -395 553 C-395 552.01 -395 551.02 -395 550 C-391.35206816 548.72746564 -387.8063457 547.67170806 -384 547 C-384 546.34 -384 545.68 -384 545 C-383.2575 544.938125 -382.515 544.87625 -381.75 544.8125 C-378.7868282 544.22200078 -378.7868282 544.22200078 -377 541.5 C-374.65805074 538.57256342 -373.58697572 538.48472645 -370 538 C-369.67 537.34 -369.34 536.68 -369 536 C-367.35 536 -365.7 536 -364 536 C-363.67 535.01 -363.34 534.02 -363 533 C-361.35 533 -359.7 533 -358 533 C-357.67 532.01 -357.34 531.02 -357 530 C-355.35 530 -353.7 530 -352 530 C-351.67 529.01 -351.34 528.02 -351 527 C-349.35 527 -347.7 527 -346 527 C-346 526.01 -346 525.02 -346 524 C-345.030625 523.690625 -344.06125 523.38125 -343.0625 523.0625 C-340.15934208 522.30476658 -340.15934208 522.30476658 -339 521 C-337.865625 520.855625 -336.73125 520.71125 -335.5625 520.5625 C-331.95941003 520.35152449 -331.95941003 520.35152449 -330 518 C-328.68 518 -327.36 518 -326 518 C-326 517.34 -326 516.68 -326 516 C-325 514.4375 -325 514.4375 -323 513 C-321.0546875 512.65625 -321.0546875 512.65625 -318.875 512.4375 C-317.59625 512.293125 -316.3175 512.14875 -315 512 C-314.67 511.34 -314.34 510.68 -314 510 C-310.37 510 -306.74 510 -303 510 C-302.67 509.01 -302.34 508.02 -302 507 C-301.28972656 506.95101563 -300.57945312 506.90203125 -299.84765625 506.8515625 C-298.46900391 506.73941406 -298.46900391 506.73941406 -297.0625 506.625 C-296.14597656 506.55539062 -295.22945312 506.48578125 -294.28515625 506.4140625 C-293.53105469 506.27742188 -292.77695312 506.14078125 -292 506 C-291.67 505.34 -291.34 504.68 -291 504 C-289.33333333 503.66666667 -287.66666667 503.33333333 -286 503 C-285.67 502.34 -285.34 501.68 -285 501 C-282.93734178 500.6088062 -280.90556733 500.49325481 -278.8125 500.34375 C-278.214375 500.2303125 -277.61625 500.116875 -277 500 C-276.67 499.34 -276.34 498.68 -276 498 C-270.39 498 -264.78 498 -259 498 C-259 497.01 -259 496.02 -259 495 C-255.37 495 -251.74 495 -248 495 C-248 494.34 -248 493.68 -248 493 C-245.03 492.67 -242.06 492.34 -239 492 C-239 491.34 -239 490.68 -239 490 C-235.04 489.67 -231.08 489.34 -227 489 C-227 488.34 -227 487.68 -227 487 C-221.06 487 -215.12 487 -209 487 C-209 486.01 -209 485.02 -209 484 C-204.71 484 -200.42 484 -196 484 C-195.67 483.01 -195.34 482.02 -195 481 C-192.36 481 -189.72 481 -187 481 C-186.67 480.01 -186.34 479.02 -186 478 C-184.865625 477.87625 -183.73125 477.7525 -182.5625 477.625 C-180.7990625 477.315625 -180.7990625 477.315625 -179 477 C-178.67 476.34 -178.34 475.68 -178 475 C-172.06 475 -166.12 475 -160 475 C-159.67 474.01 -159.34 473.02 -159 472 C-158.34 472 -157.68 472 -157 472 C-156.67 471.01 -156.34 470.02 -156 469 C-155.01 469 -154.02 469 -153 469 C-153.33 465.37 -153.66 461.74 -154 458 C-153.01 457.67 -152.02 457.34 -151 457 C-151 455.35 -151 453.7 -151 452 C-150.01 452 -149.02 452 -148 452 C-148 449.03 -148 446.06 -148 443 C-147.01 443 -146.02 443 -145 443 C-145 440.36 -145 437.72 -145 435 C-144.01 435 -143.02 435 -142 435 C-142 431.04 -142 427.08 -142 423 C-141.01 423 -140.02 423 -139 423 C-139 421.02 -139 419.04 -139 417 C-138.01 417 -137.02 417 -136 417 C-136 414.36 -136 411.72 -136 409 C-135.34 408.67 -134.68 408.34 -134 408 C-133.53476937 406.10466658 -133.53476937 406.10466658 -133.375 403.9375 C-133.25125 402.638125 -133.1275 401.33875 -133 400 C-132.01 400 -131.02 400 -130 400 C-130.33 397.36 -130.66 394.72 -131 392 C-129.68 391.67 -128.36 391.34 -127 391 C-127.33 388.36 -127.66 385.72 -128 383 C-126.68 382.67 -125.36 382.34 -124 382 C-124.33 380.35 -124.66 378.7 -125 377 C-124.01 377 -123.02 377 -122 377 C-122 373.04 -122 369.08 -122 365 C-121.01 365 -120.02 365 -119 365 C-119 362.03 -119 359.06 -119 356 C-118.01 356 -117.02 356 -116 356 C-116 354.35 -116 352.7 -116 351 C-115.01 351 -114.02 351 -113 351 C-113 348.03 -113 345.06 -113 342 C-112.01 342 -111.02 342 -110 342 C-110 339.03 -110 336.06 -110 333 C-109.01 333 -108.02 333 -107 333 C-107 329.37 -107 325.74 -107 322 C-106.01 322 -105.02 322 -104 322 C-104 320.02 -104 318.04 -104 316 C-103.01 316 -102.02 316 -101 316 C-101.33 313.36 -101.66 310.72 -102 308 C-100.68 307.67 -99.36 307.34 -98 307 C-98.33 304.36 -98.66 301.72 -99 299 C-98.01 298.67 -97.02 298.34 -96 298 C-96 294.37 -96 290.74 -96 287 C-95.01 287 -94.02 287 -93 287 C-93 285.02 -93 283.04 -93 281 C-92.01 281 -91.02 281 -90 281 C-90 279.02 -90 277.04 -90 275 C-89.01 275 -88.02 275 -87 275 C-87 271.37 -87 267.74 -87 264 C-86.01 264 -85.02 264 -84 264 C-84 261.03 -84 258.06 -84 255 C-83.01 255 -82.02 255 -81 255 C-81 252.03 -81 249.06 -81 246 C-80.01 246 -79.02 246 -78 246 C-78 244.35 -78 242.7 -78 241 C-77.34 240.67 -76.68 240.34 -76 240 C-75.5316735 237.41394668 -75.5316735 237.41394668 -75.375 234.4375 C-75.30023438 233.42558594 -75.22546875 232.41367187 -75.1484375 231.37109375 C-75.09945313 230.58863281 -75.05046875 229.80617188 -75 229 C-74.01 229 -73.02 229 -72 229 C-72.33 226.36 -72.66 223.72 -73 221 C-71.68 220.67 -70.36 220.34 -69 220 C-69.33 217.36 -69.66 214.72 -70 212 C-69.01 211.67 -68.02 211.34 -67 211 C-67 209.35 -67 207.7 -67 206 C-66.01 206 -65.02 206 -64 206 C-64 203.03 -64 200.06 -64 197 C-63.01 197 -62.02 197 -61 197 C-61 193.37 -61 189.74 -61 186 C-60.01 186 -59.02 186 -58 186 C-58 184.02 -58 182.04 -58 180 C-57.01 180 -56.02 180 -55 180 C-55 177.03 -55 174.06 -55 171 C-54.01 171 -53.02 171 -52 171 C-52 168.03 -52 165.06 -52 162 C-51.01 162 -50.02 162 -49 162 C-49 158.37 -49 154.74 -49 151 C-48.01 151 -47.02 151 -46 151 C-46 149.02 -46 147.04 -46 145 C-45.01 145 -44.02 145 -43 145 C-43.33 143.35 -43.66 141.7 -44 140 C-42.68 139.67 -41.36 139.34 -40 139 C-40.33 136.36 -40.66 133.72 -41 131 C-40.01 131 -39.02 131 -38 131 C-38 126.05 -38 121.1 -38 116 C-37.01 116 -36.02 116 -35 116 C-35 114.02 -35 112.04 -35 110 C-34.01 110 -33.02 110 -32 110 C-32 108.35 -32 106.7 -32 105 C-31.34 104.67 -30.68 104.34 -30 104 C-29.53476937 102.10466658 -29.53476937 102.10466658 -29.375 99.9375 C-29.25125 98.638125 -29.1275 97.33875 -29 96 C-28.01 96 -27.02 96 -26 96 C-26 92.04 -26 88.08 -26 84 C-25.01 84 -24.02 84 -23 84 C-23 81.36 -23 78.72 -23 76 C-22.34 75.67 -21.68 75.34 -21 75 C-20.34444881 72.47266765 -20.34444881 72.47266765 -20 70 C-19.01 70 -18.02 70 -17 70 C-17.33 67.36 -17.66 64.72 -18 62 C-16.68 61.67 -15.36 61.34 -14 61 C-14.33 57.37 -14.66 53.74 -15 50 C-13.68 49.67 -12.36 49.34 -11 49 C-11.33 46.36 -11.66 43.72 -12 41 C-11.01 41 -10.02 41 -9 41 C-9 39.02 -9 37.04 -9 35 C-8.01 35 -7.02 35 -6 35 C-6 32.03 -6 29.06 -6 26 C-5.01 26 -4.02 26 -3 26 C-3 20.39 -3 14.78 -3 9 C-2.01 9 -1.02 9 0 9 C0 6.03 0 3.06 0 0 Z M-203 559 C-203.33 559.99 -203.66 560.98 -204 562 C-207.3 562 -210.6 562 -214 562 C-214.33 562.66 -214.66 563.32 -215 564 C-218.0625 564.625 -218.0625 564.625 -221 565 C-221 565.99 -221 566.98 -221 568 C-222.65 568 -224.3 568 -226 568 C-226.33 568.66 -226.66 569.32 -227 570 C-229.3140622 570.73075648 -231.64828869 571.40138258 -234 572 C-234 572.33 -234 572.66 -234 573 C-234.9075 573.28875 -235.815 573.5775 -236.75 573.875 C-239.32202908 574.76531776 -241.61346766 575.71494413 -244 577 C-244 577.66 -244 578.32 -244 579 C-245.32 579.33 -246.64 579.66 -248 580 C-248 580.66 -248 581.32 -248 582 C-249.32 582.33 -250.64 582.66 -252 583 C-252 583.66 -252 584.32 -252 585 C-254.97 585.495 -254.97 585.495 -258 586 C-258 586.66 -258 587.32 -258 588 C-258.7425 588.103125 -259.485 588.20625 -260.25 588.3125 C-263.1973519 589.04933797 -264.78383074 589.94799142 -267 592 C-267 592.66 -267 593.32 -267 594 C-268.1446875 594.185625 -268.1446875 594.185625 -269.3125 594.375 C-272.20267136 594.88102792 -272.20267136 594.88102792 -275 597 C-275 597.99 -275 598.98 -275 600 C-275.99 600 -276.98 600 -278 600 C-278 600.99 -278 601.98 -278 603 C-278.66 603 -279.32 603 -280 603 C-280.99 605.475 -280.99 605.475 -282 608 C-282.99 608 -283.98 608 -285 608 C-285 608.99 -285 609.98 -285 611 C-285.66 611 -286.32 611 -287 611 C-287 611.99 -287 612.98 -287 614 C-288.485 614.495 -288.485 614.495 -290 615 C-290.495 617.475 -290.495 617.475 -291 620 C-291.99 620 -292.98 620 -294 620 C-294 620.66 -294 621.32 -294 622 C-294.99 622.495 -294.99 622.495 -296 623 C-296.65772428 626.02934491 -296.65772428 626.02934491 -297 629 C-297.66 629 -298.32 629 -299 629 C-299.12375 630.258125 -299.2475 631.51625 -299.375 632.8125 C-299.69868059 636.10325263 -300.06604999 637.09907498 -302 640 C-302.24055468 642.05709596 -302.24055468 642.05709596 -302.125 644.1875 C-302.08375 645.445625 -302.0425 646.70375 -302 648 C-302.66 648 -303.32 648 -304 648 C-304 651.3 -304 654.6 -304 658 C-303.67 658 -303.34 658 -303 658 C-302.67 660.64 -302.34 663.28 -302 666 C-301.01 666.33 -300.02 666.66 -299 667 C-298.67 669.31 -298.34 671.62 -298 674 C-297.34 674 -296.68 674 -296 674 C-296 675.32 -296 676.64 -296 678 C-295.34 678 -294.68 678 -294 678 C-293.71125 678.928125 -293.4225 679.85625 -293.125 680.8125 C-292.1125 684.09791667 -292.1125 684.09791667 -290 687 C-289.34 687 -288.68 687 -288 687 C-287.67 688.65 -287.34 690.3 -287 692 C-286.01 692 -285.02 692 -284 692 C-284 692.99 -284 693.98 -284 695 C-283.01 695 -282.02 695 -281 695 C-281 695.99 -281 696.98 -281 698 C-280.01 698 -279.02 698 -278 698 C-278 698.99 -278 699.98 -278 701 C-277.01 701 -276.02 701 -275 701 C-274.67 701.99 -274.34 702.98 -274 704 C-273.01 704 -272.02 704 -271 704 C-271 704.99 -271 705.98 -271 707 C-269.35 707 -267.7 707 -266 707 C-265.67 707.99 -265.34 708.98 -265 710 C-264.34 710 -263.68 710 -263 710 C-262.67 710.99 -262.34 711.98 -262 713 C-260.68 713 -259.36 713 -258 713 C-258 713.66 -258 714.32 -258 715 C-256.68 715.33 -255.36 715.66 -254 716 C-254 716.66 -254 717.32 -254 718 C-252.68 718 -251.36 718 -250 718 C-249.67 718.99 -249.34 719.98 -249 721 C-248.01 721 -247.02 721 -246 721 C-245.87625 719.865625 -245.7525 718.73125 -245.625 717.5625 C-245.41875 716.386875 -245.2125 715.21125 -245 714 C-244.34 713.67 -243.68 713.34 -243 713 C-243 708.71 -243 704.42 -243 700 C-242.34 700 -241.68 700 -241 700 C-240.71125 698.865625 -240.4225 697.73125 -240.125 696.5625 C-239.568125 694.7990625 -239.568125 694.7990625 -239 693 C-238.34 692.67 -237.68 692.34 -237 692 C-237 690.35 -237 688.7 -237 687 C-236.01 686.67 -235.02 686.34 -234 686 C-233.67 683.36 -233.34 680.72 -233 678 C-232.34 678 -231.68 678 -231 678 C-231.061875 677.030625 -231.12375 676.06125 -231.1875 675.0625 C-231.21204564 671.04519732 -230.064405 667.74462805 -228.65625 664.015625 C-227.84520698 661.87785863 -227.84520698 661.87785863 -228 659 C-227.34 658.67 -226.68 658.34 -226 658 C-226 656.02 -226 654.04 -226 652 C-225.01 652 -224.02 652 -223 652 C-223 650.02 -223 648.04 -223 646 C-222.01 646 -221.02 646 -220 646 C-219.92652344 644.73542969 -219.92652344 644.73542969 -219.8515625 643.4453125 C-219.77679688 642.34960938 -219.70203125 641.25390625 -219.625 640.125 C-219.55539062 639.03445313 -219.48578125 637.94390625 -219.4140625 636.8203125 C-219 634 -219 634 -217 632 C-216.61596877 630.05848638 -216.61596877 630.05848638 -216.5 627.9375 C-216.335 626.638125 -216.17 625.33875 -216 624 C-215.34 623.67 -214.68 623.34 -214 623 C-214 621.02 -214 619.04 -214 617 C-213.01 617 -212.02 617 -211 617 C-210.814375 615.7934375 -210.814375 615.7934375 -210.625 614.5625 C-210.41875 613.716875 -210.2125 612.87125 -210 612 C-209.34 611.67 -208.68 611.34 -208 611 C-207.60691577 608.77702487 -207.60691577 608.77702487 -207.5 606.1875 C-207.28468766 602.54333867 -206.67313951 600.21912041 -205 597 C-204.83275263 593.83304044 -204.83275263 593.83304044 -205 591 C-204.34 591 -203.68 591 -203 591 C-202.814375 589.5459375 -202.814375 589.5459375 -202.625 588.0625 C-202.41875 587.051875 -202.2125 586.04125 -202 585 C-201.01 584.505 -201.01 584.505 -200 584 C-199.835 583.01 -199.67 582.02 -199.5 581 C-199.335 580.01 -199.17 579.02 -199 578 C-198.01 577.505 -198.01 577.505 -197 577 C-196.60914534 574.90491777 -196.60914534 574.90491777 -196.5 572.5 C-196.34375 570.03125 -196.34375 570.03125 -196 568 C-195.34 567.67 -194.68 567.34 -194 567 C-194 564.36 -194 561.72 -194 559 C-196.97 559 -199.94 559 -203 559 Z M-229 774 C-228 777 -228 777 -228 777 Z M-234 785 C-233 787 -233 787 -233 787 Z M-237 791 C-236 793 -236 793 -236 793 Z M-272 872 C-271.67 872.99 -271.34 873.98 -271 875 C-270.67 874.01 -270.34 873.02 -270 872 C-270.66 872 -271.32 872 -272 872 Z M-284 901 C-283 904 -283 904 -283 904 Z M-295 927 C-294 930 -294 930 -294 930 Z M-301 944 C-300 946 -300 946 -300 946 Z M-310 959 C-310 961.31 -310 963.62 -310 966 C-308.5393715 963.35261084 -308 962.10551666 -308 959 C-308.66 959 -309.32 959 -310 959 Z " fill="#D32E32" transform="translate(521,45)"/>
<path d="M0 0 C4.95 0 9.9 0 15 0 C15 0.66 15 1.32 15 2 C16.35931641 1.98259766 16.35931641 1.98259766 17.74609375 1.96484375 C24.59503464 1.91411085 31.213908 2.06398731 38 3 C38 3.66 38 4.32 38 5 C41.63 5 45.26 5 49 5 C49.33 5.99 49.66 6.98 50 8 C53.63 8 57.26 8 61 8 C61.33 8.66 61.66 9.32 62 10 C68.27 10.33 74.54 10.66 81 11 C81.33 11.99 81.66 12.98 82 14 C86.62 14 91.24 14 96 14 C96 14.99 96 15.98 96 17 C98.64 17 101.28 17 104 17 C104.33 17.99 104.66 18.98 105 20 C107.64 20 110.28 20 113 20 C113.33 20.66 113.66 21.32 114 22 C119.61 22.33 125.22 22.66 131 23 C131.33 23.66 131.66 24.32 132 25 C134.35599235 25.46751788 134.35599235 25.46751788 137.0625 25.625 C137.98160156 25.69976563 138.90070313 25.77453125 139.84765625 25.8515625 C140.55792969 25.90054688 141.26820313 25.94953125 142 26 C142 26.66 142 27.32 142 28 C144.97 28.33 147.94 28.66 151 29 C151 29.66 151 30.32 151 31 C152.65 31 154.3 31 156 31 C156.33 31.99 156.66 32.98 157 34 C161.62 34 166.24 34 171 34 C171.33 34.66 171.66 35.32 172 36 C175.04581269 36.46954261 175.04581269 36.46954261 178.5625 36.625 C179.76003906 36.69976563 180.95757813 36.77453125 182.19140625 36.8515625 C183.11824219 36.90054688 184.04507813 36.94953125 185 37 C185.33 37.99 185.66 38.98 186 40 C187.65 40 189.3 40 191 40 C191.33 40.99 191.66 41.98 192 43 C194.64 43 197.28 43 200 43 C200.33 43.66 200.66 44.32 201 45 C202.86492402 45.38995102 202.86492402 45.38995102 205 45.5 C207.1875 45.65625 207.1875 45.65625 209 46 C209.33 46.66 209.66 47.32 210 48 C213.04581269 48.46954261 213.04581269 48.46954261 216.5625 48.625 C217.76003906 48.69976563 218.95757813 48.77453125 220.19140625 48.8515625 C221.11824219 48.90054688 222.04507813 48.94953125 223 49 C223.33 49.99 223.66 50.98 224 52 C225.65 52 227.3 52 229 52 C229.33 52.66 229.66 53.32 230 54 C231.89533342 54.46523063 231.89533342 54.46523063 234.0625 54.625 C235.361875 54.74875 236.66125 54.8725 238 55 C238 55.66 238 56.32 238 57 C239.98 57.33 241.96 57.66 244 58 C244 58.66 244 59.32 244 60 C246.64 60 249.28 60 252 60 C252.33 60.66 252.66 61.32 253 62 C255.52733235 62.65555119 255.52733235 62.65555119 258 63 C258 63.99 258 64.98 258 66 C258.99 66 259.98 66 261 66 C261.33 66.66 261.66 67.32 262 68 C262.825 68.165 263.65 68.33 264.5 68.5 C265.325 68.665 266.15 68.83 267 69 C267.33 69.66 267.66 70.32 268 71 C270.32156597 71.40729228 272.6568787 71.74438677 275 72 C275.33 72.99 275.66 73.98 276 75 C276.7425 74.896875 277.485 74.79375 278.25 74.6875 C281 75 281 75 283 77.4375 C283.66 78.283125 284.32 79.12875 285 80 C287.60611077 80.72197162 287.60611077 80.72197162 290 81 C290.33 81.66 290.66 82.32 291 83 C293.52733235 83.65555119 293.52733235 83.65555119 296 84 C296 84.66 296 85.32 296 86 C296.99 86.33 297.98 86.66 299 87 C299 87.66 299 88.32 299 89 C299.99 89.33 300.98 89.66 302 90 C302 90.66 302 91.32 302 92 C302.99 92.33 303.98 92.66 305 93 C305 93.66 305 94.32 305 95 C305.7425 94.896875 306.485 94.79375 307.25 94.6875 C310 95 310 95 312 97.25 C312.66 98.1575 313.32 99.065 314 100 C314.825 100.66 315.65 101.32 316.5 102 C319.13371001 104.10696801 320.93963033 106.34145849 323 109 C323.721875 109.680625 324.44375 110.36125 325.1875 111.0625 C327.14594961 113.1560151 327.36828373 114.29264455 328 117 C328.99 117.66 329.98 118.32 331 119 C331 119.66 331 120.32 331 121 C331.66 121 332.32 121 333 121 C336.03436527 123.30611761 336.33082151 125.36731679 337 129 C337.66 129.33 338.32 129.66 339 130 C339 133.3 339 136.6 339 140 C338.67 140 338.34 140 338 140 C338 157.49 338 174.98 338 193 C338.33 193 338.66 193 339 193 C339 195.97 339 198.94 339 202 C337.68 202.66 336.36 203.32 335 204 C335.226875 204.598125 335.45375 205.19625 335.6875 205.8125 C336 208 336 208 334.6875 209.75 C333 211 333 211 331 211 C330.67 211.99 330.34 212.98 330 214 C329.34 214 328.68 214 328 214 C327.67 214.99 327.34 215.98 327 217 C326.34 217 325.68 217 325 217 C324.67 217.99 324.34 218.98 324 220 C323.34 220 322.68 220 322 220 C321.67 220.99 321.34 221.98 321 223 C320.34 223 319.68 223 319 223 C319 223.99 319 224.98 319 226 C318.01 226 317.02 226 316 226 C316 227.65 316 229.3 316 231 C315.01 231.33 314.02 231.66 313 232 C313 232.66 313 233.32 313 234 C310.34771188 235.07525194 307.71631546 236.09456151 305 237 C304.67 237.99 304.34 238.98 304 240 C303.34 240 302.68 240 302 240 C301.67 240.99 301.34 241.98 301 243 C299.67696283 243.3721042 298.34262065 243.70630173 297 244 C296.67 244.66 296.34 245.32 296 246 C295.01 246 294.02 246 293 246 C293 246.99 293 247.98 293 249 C292.195625 249.12375 291.39125 249.2475 290.5625 249.375 C289.716875 249.58125 288.87125 249.7875 288 250 C287.67 250.66 287.34 251.32 287 252 C286.2575 252.103125 285.515 252.20625 284.75 252.3125 C281.74811145 252.81242342 281.74811145 252.81242342 279.4375 255.5625 C278.633125 256.366875 277.82875 257.17125 277 258 C275.68 258 274.36 258 273 258 C273 258.66 273 259.32 273 260 C271.88625 260.0928125 271.88625 260.0928125 270.75 260.1875 C267.7868282 260.77799922 267.7868282 260.77799922 266 263.5 C263.65805074 266.42743658 262.58697572 266.51527355 259 267 C258.67 267.66 258.34 268.32 258 269 C255.36 269 252.72 269 250 269 C249.67 269.99 249.34 270.98 249 272 C246.36 272 243.72 272 241 272 C240.67 272.99 240.34 273.98 240 275 C238.865625 275.12375 237.73125 275.2475 236.5625 275.375 C235.386875 275.58125 234.21125 275.7875 233 276 C232.67 276.66 232.34 277.32 232 278 C230.33333333 278.33333333 228.66666667 278.66666667 227 279 C226.67 279.66 226.34 280.32 226 281 C224.33333333 281.33333333 222.66666667 281.66666667 221 282 C220.67 282.66 220.34 283.32 220 284 C216.37 284 212.74 284 209 284 C209 284.66 209 285.32 209 286 C207.02 286.33 205.04 286.66 203 287 C203 287.66 203 288.32 203 289 C202.195625 289.12375 201.39125 289.2475 200.5625 289.375 C199.2940625 289.684375 199.2940625 289.684375 198 290 C197.67 290.66 197.34 291.32 197 292 C194.41682273 292.39465208 191.85811719 292.50806152 189.25 292.65625 C188.5075 292.7696875 187.765 292.883125 187 293 C186.67 293.66 186.34 294.32 186 295 C180.39 295 174.78 295 169 295 C168.67 295.99 168.34 296.98 168 298 C165.36 298 162.72 298 160 298 C159.67 298.99 159.34 299.98 159 301 C157.35 301 155.7 301 154 301 C154 301.99 154 302.98 154 304 C150.92382812 304.29296875 150.92382812 304.29296875 147.84765625 304.5859375 C147.23792969 304.72257812 146.62820313 304.85921875 146 305 C145.67 305.66 145.34 306.32 145 307 C139.39 307 133.78 307 128 307 C127.67 307.99 127.34 308.98 127 310 C123.37 310 119.74 310 116 310 C116 310.99 116 311.98 116 313 C114.80375 313.12375 113.6075 313.2475 112.375 313.375 C109.6381242 313.70805896 107.45773995 314.18075335 104.8125 315.0625 C102.01198553 315.99600482 99.92553 316.17209 97 316 C96.67 316.66 96.34 317.32 96 318 C87.75 318.33 79.5 318.66 71 319 C70.67 319.66 70.34 320.32 70 321 C65.38 321 60.76 321 56 321 C55.67 321.99 55.34 322.98 55 324 C54.28972656 324.04898437 53.57945312 324.09796875 52.84765625 324.1484375 C51.46900391 324.26058594 51.46900391 324.26058594 50.0625 324.375 C49.14597656 324.44460938 48.22945312 324.51421875 47.28515625 324.5859375 C46.53105469 324.72257812 45.77695312 324.85921875 45 325 C44.67 325.66 44.34 326.32 44 327 C26.84 327 9.68 327 -8 327 C-8.33 327.99 -8.66 328.98 -9 330 C-106.35 330 -203.7 330 -304 330 C-304 329.01 -304 328.02 -304 327 C-322.15 327 -340.3 327 -359 327 C-359 326.01 -359 325.02 -359 324 C-362.63 324 -366.26 324 -370 324 C-370 321.03 -370 318.06 -370 315 C-369.01 315 -368.02 315 -367 315 C-367.33 312.36 -367.66 309.72 -368 307 C-367.01 306.67 -366.02 306.34 -365 306 C-365 304.35 -365 302.7 -365 301 C-364.01 301 -363.02 301 -362 301 C-362 300.01 -362 299.02 -362 298 C-360.02 298 -358.04 298 -356 298 C-356 297.01 -356 296.02 -356 295 C-291.98 295 -227.96 295 -162 295 C-162 294.01 -162 293.02 -162 292 C-154.41 292 -146.82 292 -139 292 C-139 291.01 -139 290.02 -139 289 C-133.39 289 -127.78 289 -122 289 C-121.67 288.01 -121.34 287.02 -121 286 C-113.41 286 -105.82 286 -98 286 C-98 285.01 -98 284.02 -98 283 C-85.79 283 -73.58 283 -61 283 C-61 282.34 -61 281.68 -61 281 C-56.03926578 279.67713754 -51.08888488 279.91106803 -46 280 C-46 279.34 -46 278.68 -46 278 C-43.36 278 -40.72 278 -38 278 C-37.67 277.01 -37.34 276.02 -37 275 C-32.38 275 -27.76 275 -23 275 C-23 274.01 -23 273.02 -23 272 C-13.43 272 -3.86 272 6 272 C6 271.01 6 270.02 6 269 C8.97 269 11.94 269 15 269 C15 268.01 15 267.02 15 266 C16.65 266 18.3 266 20 266 C20.33 265.01 20.66 264.02 21 263 C23.64 263 26.28 263 29 263 C29 262.01 29 261.02 29 260 C33.95 260 38.9 260 44 260 C44 259.01 44 258.02 44 257 C46.64 257 49.28 257 52 257 C52 256.34 52 255.68 52 255 C53.98 254.67 55.96 254.34 58 254 C58 253.34 58 252.68 58 252 C61.37817425 251.15545644 63.67465243 250.89155081 67 252 C67 251.01 67 250.02 67 249 C70.63 249 74.26 249 78 249 C78 248.01 78 247.02 78 246 C80.97 246 83.94 246 87 246 C87 245.01 87 244.02 87 243 C88.98 243 90.96 243 93 243 C93 242.01 93 241.02 93 240 C94.98 240 96.96 240 99 240 C99 239.01 99 238.02 99 237 C103.62 237 108.24 237 113 237 C113 236.01 113 235.02 113 234 C114.98 234 116.96 234 119 234 C119 233.01 119 232.02 119 231 C120.98 231 122.96 231 125 231 C125 230.01 125 229.02 125 228 C128.63 227.01 132.26 226.02 136 225 C136 224.34 136 223.68 136 223 C137.98 223 139.96 223 142 223 C142 222.01 142 221.02 142 220 C142.99 220 143.98 220 145 220 C145 219.01 145 218.02 145 217 C145.99 217 146.98 217 148 217 C148 216.01 148 215.02 148 214 C149.98 214 151.96 214 154 214 C154 213.01 154 212.02 154 211 C155.1875 209.3125 155.1875 209.3125 157 208 C159.6875 207.8125 159.6875 207.8125 162 208 C162.33 207.01 162.66 206.02 163 205 C163.66 205 164.32 205 165 205 C165.33 204.01 165.66 203.02 166 202 C167.65 202 169.3 202 171 202 C171.33 201.01 171.66 200.02 172 199 C172.66 199 173.32 199 174 199 C174 198.34 174 197.68 174 197 C174.99 197 175.98 197 177 197 C177 196.01 177 195.02 177 194 C177.99 194 178.98 194 180 194 C180 193.01 180 192.02 180 191 C180.99 191 181.98 191 183 191 C183 190.01 183 189.02 183 188 C184.375 186.3125 184.375 186.3125 186 185 C186.66 185 187.32 185 188 185 C188.33 184.01 188.66 183.02 189 182 C189.66 182 190.32 182 191 182 C191.33 181.01 191.66 180.02 192 179 C192.66 179 193.32 179 194 179 C194.33 178.01 194.66 177.02 195 176 C195.99 176 196.98 176 198 176 C197.67 174.35 197.34 172.7 197 171 C197.66 170.67 198.32 170.34 199 170 C199.4683265 167.41394668 199.4683265 167.41394668 199.625 164.4375 C199.69976563 163.42558594 199.77453125 162.41367187 199.8515625 161.37109375 C199.90054688 160.58863281 199.94953125 159.80617188 200 159 C200.99 159 201.98 159 203 159 C203 157.02 203 155.04 203 153 C203.99 153 204.98 153 206 153 C206 145.41 206 137.82 206 130 C205.01 130 204.02 130 203 130 C203 127.03 203 124.06 203 121 C202.01 121 201.02 121 200 121 C200 118.36 200 115.72 200 113 C199.01 113 198.02 113 197 113 C197.33 111.02 197.66 109.04 198 107 C196.68 107 195.36 107 194 107 C194.33 105.02 194.66 103.04 195 101 C193.68 101 192.36 101 191 101 C191 100.01 191 99.02 191 98 C190.01 98 189.02 98 188 98 C188 97.01 188 96.02 188 95 C187.01 94.67 186.02 94.34 185 94 C185 93.34 185 92.68 185 92 C184.34 92 183.68 92 183 92 C183 91.34 183 90.68 183 90 C182.01 90 181.02 90 180 90 C180 89.01 180 88.02 180 87 C179.01 87 178.02 87 177 87 C177 86.01 177 85.02 177 84 C176.01 84 175.02 84 174 84 C174 83.01 174 82.02 174 81 C173.01 81 172.02 81 171 81 C171 80.01 171 79.02 171 78 C170.01 78 169.02 78 168 78 C168 77.01 168 76.02 168 75 C167.01 75 166.02 75 165 75 C165 74.01 165 73.02 165 72 C163.35 72 161.7 72 160 72 C159.67 71.01 159.34 70.02 159 69 C157.35 69 155.7 69 154 69 C154 68.01 154 67.02 154 66 C153.01 66 152.02 66 151 66 C151 65.34 151 64.68 151 64 C149.02 63.67 147.04 63.34 145 63 C145 62.34 145 61.68 145 61 C143.35 61 141.7 61 140 61 C139.67 60.01 139.34 59.02 139 58 C136.36 58 133.72 58 131 58 C130.67 57.01 130.34 56.02 130 55 C128.35 55 126.7 55 125 55 C125 54.01 125 53.02 125 52 C123.02 52 121.04 52 119 52 C119 51.01 119 50.02 119 49 C117.02 49 115.04 49 113 49 C113 48.01 113 47.02 113 46 C112.25234375 46.05800781 111.5046875 46.11601563 110.734375 46.17578125 C107.75441315 46.31229783 104.96319643 46.36073696 102 46 C99.625 43.5625 99.625 43.5625 98 41 C95.36539052 40.12056596 95.36539052 40.12056596 93 40 C93 39.01 93 38.02 93 37 C91.02 37 89.04 37 87 37 C87 36.34 87 35.68 87 35 C83.37 35 79.74 35 76 35 C75.67 34.01 75.34 33.02 75 32 C72.36 32 69.72 32 67 32 C67 31.01 67 30.02 67 29 C65.02 29 63.04 29 61 29 C61 28.01 61 27.02 61 26 C57.37 26 53.74 26 50 26 C49.67 25.01 49.34 24.02 49 23 C42.4 23 35.8 23 29 23 C29 22.01 29 21.02 29 20 C26.36 20 23.72 20 21 20 C20.67 19.01 20.34 18.02 20 17 C19.01 16.67 18.02 16.34 17 16 C17 15.67 17 15.34 17 15 C13.04 14.505 13.04 14.505 9 14 C9 13.01 9 12.02 9 11 C5.04 11 1.08 11 -3 11 C-3 10.34 -3 9.68 -3 9 C-4.794375 9.0928125 -4.794375 9.0928125 -6.625 9.1875 C-10.73497595 9.20943937 -13.4478261 8.13130434 -17 6 C-17 5.67 -17 5.34 -17 5 C-15.02 5 -13.04 5 -11 5 C-11 4.34 -11 3.68 -11 3 C-3.57142857 1.71428571 -3.57142857 1.71428571 0 3 C0 2.01 0 1.02 0 0 Z M325 115 C325 115.99 325 116.98 325 118 C325.66 117.67 326.32 117.34 327 117 C326.34 116.34 325.68 115.68 325 115 Z M334 128 C334 128.66 334 129.32 334 130 C334.66 129.67 335.32 129.34 336 129 C335.34 128.67 334.68 128.34 334 128 Z " fill="#D62D2F" transform="translate(674,590)"/>
<path d="M0 0 C5.28 0 10.56 0 16 0 C14 7 14 7 12 10 C11.60003596 12.15536176 11.2743151 14.32507315 11 16.5 C10.22222222 22.66666667 10.22222222 22.66666667 8 26 C7.50200896 27.92556535 7.00905912 29.85274036 6.5546875 31.7890625 C5.82934309 34.68022402 4.87384453 37.46218386 3.8984375 40.27734375 C3.2115241 42.35899001 2.58120409 44.45939184 1.9765625 46.56640625 C-0.94529702 56.69770507 -5.07028796 65.69748899 -10 75 C-10.51304687 76.08023438 -11.02609375 77.16046875 -11.5546875 78.2734375 C-12.87093274 80.75651636 -13.73951397 82.36252597 -16 84 C-18.2265625 84.44140625 -18.2265625 84.44140625 -20.625 84.5625 C-22.97141842 84.64641122 -22.97141842 84.64641122 -25 85 C-25.33 85.66 -25.66 86.32 -26 87 C-28.28515625 87.4140625 -28.28515625 87.4140625 -31.0625 87.625 C-32.44115234 87.73714844 -32.44115234 87.73714844 -33.84765625 87.8515625 C-34.55792969 87.90054688 -35.26820313 87.94953125 -36 88 C-36 88.66 -36 89.32 -36 90 C-38.31 90 -40.62 90 -43 90 C-43 90.99 -43 91.98 -43 93 C-45.475 93.495 -45.475 93.495 -48 94 C-48 94.66 -48 95.32 -48 96 C-51.465 96.495 -51.465 96.495 -55 97 C-55 97.66 -55 98.32 -55 99 C-57.97 99.495 -57.97 99.495 -61 100 C-61 100.66 -61 101.32 -61 102 C-62.65 102 -64.3 102 -66 102 C-66 102.66 -66 103.32 -66 104 C-66.99 104.33 -67.98 104.66 -69 105 C-69.515625 105.515625 -70.03125 106.03125 -70.5625 106.5625 C-71.036875 107.036875 -71.51125 107.51125 -72 108 C-72.66 108 -73.32 108 -74 108 C-74 108.66 -74 109.32 -74 110 C-76.97 110.495 -76.97 110.495 -80 111 C-80 111.66 -80 112.32 -80 113 C-82.05290548 114.02645274 -84.09975903 115.04560413 -86.1875 116 C-88.17201523 116.87144569 -88.17201523 116.87144569 -89 119 C-91.58774327 120.51695295 -94.07471973 121.37315423 -97 122 C-97 122.99 -97 123.98 -97 125 C-97.99 125 -98.98 125 -100 125 C-100 125.99 -100 126.98 -100 128 C-100.66 128 -101.32 128 -102 128 C-102.66 129.65 -103.32 131.3 -104 133 C-104.99 133 -105.98 133 -107 133 C-107 133.99 -107 134.98 -107 136 C-107.66 136 -108.32 136 -109 136 C-109 136.99 -109 137.98 -109 139 C-109.97850195 140.02104551 -110.97980427 141.0206121 -112 142 C-112.33 142.99 -112.66 143.98 -113 145 C-113.99 145 -114.98 145 -116 145 C-115.67 145.99 -115.34 146.98 -115 148 C-115.99 148 -116.98 148 -118 148 C-118.33 149.98 -118.66 151.96 -119 154 C-119.66 154 -120.32 154 -121 154 C-120.97679687 154.62648438 -120.95359375 155.25296875 -120.9296875 155.8984375 C-120.91164062 156.71570313 -120.89359375 157.53296875 -120.875 158.375 C-120.85179687 159.18710937 -120.82859375 159.99921875 -120.8046875 160.8359375 C-121 163 -121 163 -123 165 C-123.45811675 166.97235333 -123.45811675 166.97235333 -123.625 169.125 C-123.810625 171.043125 -123.810625 171.043125 -124 173 C-124.66 173 -125.32 173 -126 173 C-125.67 175.97 -125.34 178.94 -125 182 C-124.67 182 -124.34 182 -124 182 C-123.95101562 182.63808594 -123.90203125 183.27617188 -123.8515625 183.93359375 C-123.73941406 185.17302734 -123.73941406 185.17302734 -123.625 186.4375 C-123.55539063 187.26121094 -123.48578125 188.08492187 -123.4140625 188.93359375 C-123.27742187 189.61550781 -123.14078125 190.29742188 -123 191 C-122.34 191.33 -121.68 191.66 -121 192 C-120.59270772 194.32156597 -120.25561323 196.6568787 -120 199 C-119.34 199 -118.68 199 -118 199 C-118 200.32 -118 201.64 -118 203 C-117.34 203 -116.68 203 -116 203 C-115.74605469 203.54269531 -115.49210938 204.08539062 -115.23046875 204.64453125 C-114.71419922 205.71767578 -114.71419922 205.71767578 -114.1875 206.8125 C-113.85105469 207.52019531 -113.51460937 208.22789062 -113.16796875 208.95703125 C-112.0948316 211.05669213 -112.0948316 211.05669213 -110.36328125 212.57421875 C-109 214 -109 214 -109 217 C-108.01 217 -107.02 217 -106 217 C-106 217.99 -106 218.98 -106 220 C-105.01 220 -104.02 220 -103 220 C-103 220.99 -103 221.98 -103 223 C-102.01 223 -101.02 223 -100 223 C-100 223.99 -100 224.98 -100 226 C-99.01 226 -98.02 226 -97 226 C-96.67 226.66 -96.34 227.32 -96 228 C-95.01 228.33 -94.02 228.66 -93 229 C-93 229.99 -93 230.98 -93 232 C-92.2575 231.896875 -91.515 231.79375 -90.75 231.6875 C-88 232 -88 232 -85.9375 234.4375 C-85.298125 235.283125 -84.65875 236.12875 -84 237 C-81.87053397 237.86965506 -81.87053397 237.86965506 -80 238 C-80 238.66 -80 239.32 -80 240 C-78.68 240.33 -77.36 240.66 -76 241 C-76 241.66 -76 242.32 -76 243 C-74.68 243 -73.36 243 -72 243 C-70.1875 244.125 -70.1875 244.125 -69 246 C-69.13868025 249.25898589 -69.37448358 251.27763967 -71.5390625 253.77734375 C-73.5296416 256.80579164 -73.26594796 259.02873584 -73.25 262.625 C-73.61110428 270.47901802 -76.49018047 275.49018047 -82 281 C-84.14307896 281.12537741 -86.29078886 281.17574364 -88.4375 281.1875 C-89.61183594 281.20167969 -90.78617188 281.21585938 -91.99609375 281.23046875 C-95 281 -95 281 -97 279 C-99.32275177 278.59952556 -101.65739357 278.2602896 -104 278 C-104 277.34 -104 276.68 -104 276 C-104.99 275.67 -105.98 275.34 -107 275 C-107 274.34 -107 273.68 -107 273 C-109.64 273 -112.28 273 -115 273 C-115.33 272.01 -115.66 271.02 -116 270 C-120.62 270 -125.24 270 -130 270 C-130.33 269.34 -130.66 268.68 -131 268 C-132.89533342 267.53476937 -132.89533342 267.53476937 -135.0625 267.375 C-136.361875 267.25125 -137.66125 267.1275 -139 267 C-139 266.01 -139 265.02 -139 264 C-140.65 264 -142.3 264 -144 264 C-144.495 262.515 -144.495 262.515 -145 261 C-146.65 261 -148.3 261 -150 261 C-150.495 259.515 -150.495 259.515 -151 258 C-153.64 258 -156.28 258 -159 258 C-159.33 257.34 -159.66 256.68 -160 256 C-161.8871875 255.8453125 -161.8871875 255.8453125 -163.8125 255.6875 C-167.3029846 255.35832619 -167.74243176 255.2943637 -170.1875 252.5 C-170.785625 251.675 -171.38375 250.85 -172 250 C-174.63460948 249.12056596 -174.63460948 249.12056596 -177 249 C-177 248.34 -177 247.68 -177 247 C-177.928125 247.04125 -178.85625 247.0825 -179.8125 247.125 C-183 247 -183 247 -186 245 C-187.65549531 244.61500109 -189.3222433 244.27206865 -191 244 C-191 243.01 -191 242.02 -191 241 C-192.65 241 -194.3 241 -196 241 C-196.33 240.01 -196.66 239.02 -197 238 C-198.65 238 -200.3 238 -202 238 C-202.33 237.01 -202.66 236.02 -203 235 C-204.65 235 -206.3 235 -208 235 C-208.33 234.01 -208.66 233.02 -209 232 C-210.65 232 -212.3 232 -214 232 C-214.33 231.34 -214.66 230.68 -215 230 C-216.1446875 229.8453125 -216.1446875 229.8453125 -217.3125 229.6875 C-220.94071875 228.75935102 -221.79607594 226.96152296 -224 224 C-224.9075 223.278125 -225.815 222.55625 -226.75 221.8125 C-227.4925 221.214375 -228.235 220.61625 -229 220 C-229 219.34 -229 218.68 -229 218 C-229.99 217.67 -230.98 217.34 -232 217 C-232 216.34 -232 215.68 -232 215 C-232.99 214.67 -233.98 214.34 -235 214 C-235 213.34 -235 212.68 -235 212 C-235.66 212 -236.32 212 -237 212 C-238.33895632 210.33784732 -239.67130142 208.67036393 -241 207 C-241.825 206.34 -242.65 205.68 -243.5 205 C-246.12899543 202.89680365 -247.90319635 200.62100457 -250 198 C-251.66270287 196.66172696 -253.32916181 195.32810215 -255 194 C-258 190.5862069 -258 190.5862069 -258 187 C-258.99 186.34 -259.98 185.68 -261 185 C-261 184.34 -261 183.68 -261 183 C-261.99 182.67 -262.98 182.34 -264 182 C-264 181.34 -264 180.68 -264 180 C-264.99 179.67 -265.98 179.34 -267 179 C-267 178.34 -267 177.68 -267 177 C-267.66 177 -268.32 177 -269 177 C-269.12375 176.195625 -269.2475 175.39125 -269.375 174.5625 C-269.58125 173.716875 -269.7875 172.87125 -270 172 C-270.66 171.67 -271.32 171.34 -272 171 C-272 159.45 -272 147.9 -272 136 C-271.34 135.67 -270.68 135.34 -270 135 C-270.33 134.34 -270.66 133.68 -271 133 C-271.13415472 130.3276379 -271.04318541 127.67749512 -271 125 C-270.01 125 -269.02 125 -268 125 C-268 124.34 -268 123.68 -268 123 C-267.360625 122.896875 -266.72125 122.79375 -266.0625 122.6875 C-265.381875 122.460625 -264.70125 122.23375 -264 122 C-263.67 121.01 -263.34 120.02 -263 119 C-262.34 119 -261.68 119 -261 119 C-260.67 118.01 -260.34 117.02 -260 116 C-259.34 116 -258.68 116 -258 116 C-258 114.35 -258 112.7 -258 111 C-256.515 110.505 -256.515 110.505 -255 110 C-254.505 108.515 -254.505 108.515 -254 107 C-253.34 107 -252.68 107 -252 107 C-251.505 105.515 -251.505 105.515 -251 104 C-250.34 104 -249.68 104 -249 104 C-249 102.35 -249 100.7 -249 99 C-243.25 96 -243.25 96 -241 96 C-240.505 94.515 -240.505 94.515 -240 93 C-238.3364521 92.32558869 -236.66933058 91.6599679 -235 91 C-233.64748503 89.68612831 -232.31054623 88.35573748 -231 87 C-230.34 87 -229.68 87 -229 87 C-229 86.01 -229 85.02 -229 84 C-228.01 84 -227.02 84 -226 84 C-226 83.01 -226 82.02 -226 81 C-225.195625 80.87625 -224.39125 80.7525 -223.5625 80.625 C-222.2940625 80.315625 -222.2940625 80.315625 -221 80 C-220.67 79.34 -220.34 78.68 -220 78 C-219.01 78 -218.02 78 -217 78 C-217 77.01 -217 76.02 -217 75 C-213.35206816 73.72746564 -209.8063457 72.67170806 -206 72 C-206 71.34 -206 70.68 -206 70 C-204.88625 69.9071875 -204.88625 69.9071875 -203.75 69.8125 C-200.7868282 69.22200078 -200.7868282 69.22200078 -199 66.5 C-196.65805074 63.57256342 -195.58697572 63.48472645 -192 63 C-191.505 62.01 -191.505 62.01 -191 61 C-189.35 61 -187.7 61 -186 61 C-185.67 60.01 -185.34 59.02 -185 58 C-183.35 58 -181.7 58 -180 58 C-179.67 57.01 -179.34 56.02 -179 55 C-177.35 55 -175.7 55 -174 55 C-173.67 54.01 -173.34 53.02 -173 52 C-171.35 52 -169.7 52 -168 52 C-168 51.01 -168 50.02 -168 49 C-167.030625 48.690625 -166.06125 48.38125 -165.0625 48.0625 C-162.15934208 47.30476658 -162.15934208 47.30476658 -161 46 C-159.865625 45.855625 -158.73125 45.71125 -157.5625 45.5625 C-153.95941003 45.35152449 -153.95941003 45.35152449 -152 43 C-150.68 43 -149.36 43 -148 43 C-148 42.34 -148 41.68 -148 41 C-147 39.4375 -147 39.4375 -145 38 C-143.0546875 37.65625 -143.0546875 37.65625 -140.875 37.4375 C-139.59625 37.293125 -138.3175 37.14875 -137 37 C-136.67 36.34 -136.34 35.68 -136 35 C-132.37 35 -128.74 35 -125 35 C-124.67 34.01 -124.34 33.02 -124 32 C-122.93458984 31.92652344 -122.93458984 31.92652344 -121.84765625 31.8515625 C-120.92855469 31.77679687 -120.00945312 31.70203125 -119.0625 31.625 C-117.68771484 31.52058594 -117.68771484 31.52058594 -116.28515625 31.4140625 C-115.53105469 31.27742187 -114.77695313 31.14078125 -114 31 C-113.67 30.34 -113.34 29.68 -113 29 C-111.33333333 28.66666667 -109.66666667 28.33333333 -108 28 C-107.67 27.34 -107.34 26.68 -107 26 C-104.93734178 25.6088062 -102.90556733 25.49325481 -100.8125 25.34375 C-100.214375 25.2303125 -99.61625 25.116875 -99 25 C-98.67 24.34 -98.34 23.68 -98 23 C-92.39 23 -86.78 23 -81 23 C-81 22.01 -81 21.02 -81 20 C-77.37 20 -73.74 20 -70 20 C-70 19.34 -70 18.68 -70 18 C-67.03 17.67 -64.06 17.34 -61 17 C-61 16.34 -61 15.68 -61 15 C-57.04 14.67 -53.08 14.34 -49 14 C-49 13.34 -49 12.68 -49 12 C-43.06 12 -37.12 12 -31 12 C-31 11.01 -31 10.02 -31 9 C-26.71 9 -22.42 9 -18 9 C-17.67 8.01 -17.34 7.02 -17 6 C-14.36 6 -11.72 6 -9 6 C-8.67 5.01 -8.34 4.02 -8 3 C-6.865625 2.87625 -5.73125 2.7525 -4.5625 2.625 C-3.386875 2.41875 -2.21125 2.2125 -1 2 C-0.67 1.34 -0.34 0.68 0 0 Z " fill="#1196D4" transform="translate(343,520)"/>
<path d="M0 0 C9.9 0 19.8 0 30 0 C30 0.66 30 1.32 30 2 C31.72331543 1.99214478 31.72331543 1.99214478 33.48144531 1.98413086 C37.79784345 1.96584974 42.11423825 1.95448465 46.43066406 1.94506836 C48.28874286 1.94008044 50.14681782 1.93328772 52.00488281 1.92456055 C62.0495734 1.87860798 72.00302463 1.85789321 82 3 C82 3.66 82 4.32 82 5 C89.59 5 97.18 5 105 5 C105.495 5.99 105.495 5.99 106 7 C108.58605332 7.4683265 108.58605332 7.4683265 111.5625 7.625 C112.57441406 7.69976563 113.58632813 7.77453125 114.62890625 7.8515625 C115.80259766 7.92503906 115.80259766 7.92503906 117 8 C117 8.99 117 9.98 117 11 C123.6 11 130.2 11 137 11 C137.33 11.66 137.66 12.32 138 13 C151.86 13.495 151.86 13.495 166 14 C166.33 14.66 166.66 15.32 167 16 C169.55491823 16.39213038 169.55491823 16.39213038 172.5 16.5 C175.53125 16.65625 175.53125 16.65625 178 17 C178.33 17.66 178.66 18.32 179 19 C181.33247761 19.33926947 183.66585471 19.67240066 186 20 C186.99 20.99 186.99 20.99 188 22 C190.03060659 22.36894582 190.03060659 22.36894582 192.3515625 22.4140625 C193.20234375 22.45273437 194.053125 22.49140625 194.9296875 22.53125 C195.81914063 22.5621875 196.70859375 22.593125 197.625 22.625 C198.5221875 22.66367187 199.419375 22.70234375 200.34375 22.7421875 C202.5622927 22.83659357 204.78082403 22.92216748 207 23 C207.33 23.66 207.66 24.32 208 25 C214.27 25.33 220.54 25.66 227 26 C227 26.66 227 27.32 227 28 C229.97 28.33 232.94 28.66 236 29 C236 29.66 236 30.32 236 31 C237.98 31.33 239.96 31.66 242 32 C242 32.66 242 33.32 242 34 C245.63 34 249.26 34 253 34 C253.33 34.66 253.66 35.32 254 36 C256.71446979 36.31241455 259.33909361 36.51336592 262.0625 36.625 C262.82111328 36.66367187 263.57972656 36.70234375 264.36132812 36.7421875 C266.24047195 36.83673562 268.12020336 36.91946756 270 37 C270.33 37.99 270.66 38.98 271 40 C272.65 40 274.3 40 276 40 C276.33 40.66 276.66 41.32 277 42 C278.2375 42.2475 278.2375 42.2475 279.5 42.5 C280.7375 42.7475 280.7375 42.7475 282 43 C282.33 43.66 282.66 44.32 283 45 C285.98037463 45.39338548 285.98037463 45.39338548 289.4375 45.5 C295.77841561 45.77841561 295.77841561 45.77841561 298 48 C301.37687584 48.38643052 304.73384759 48.50750701 308.12890625 48.65625 C309.07636719 48.7696875 310.02382813 48.883125 311 49 C311.33 49.66 311.66 50.32 312 51 C313.2375 51.2475 313.2375 51.2475 314.5 51.5 C315.7375 51.7475 315.7375 51.7475 317 52 C317.33 52.66 317.66 53.32 318 54 C319.2375 54.2475 319.2375 54.2475 320.5 54.5 C321.7375 54.7475 321.7375 54.7475 323 55 C323.33 55.66 323.66 56.32 324 57 C326.32716 57.37400786 328.66117862 57.70764733 331 58 C331.33 58.33 331.66 58.66 332 59 C334.32817964 59.36760731 336.6618385 59.70241581 339 60 C339.33 60.99 339.66 61.98 340 63 C340.99 63.33 341.98 63.66 343 64 C343 64.66 343 65.32 343 66 C343.99 66.33 344.98 66.66 346 67 C346 67.66 346 68.32 346 69 C346.99 69.33 347.98 69.66 349 70 C349 70.66 349 71.32 349 72 C351.64 72 354.28 72 357 72 C357.33 72.66 357.66 73.32 358 74 C359.89533342 74.46523063 359.89533342 74.46523063 362.0625 74.625 C364.0115625 74.810625 364.0115625 74.810625 366 75 C366 78 366 78 364.88671875 79.67578125 C362.17035905 81.58229458 360.0892271 81.29320087 356.8125 81.1875 C355.72582031 81.16042969 354.63914062 81.13335938 353.51953125 81.10546875 C352.27236328 81.05326172 352.27236328 81.05326172 351 81 C350.67 80.01 350.34 79.02 350 78 C349.01 77.67 348.02 77.34 347 77 C347 76.34 347 75.68 347 75 C345.35 75 343.7 75 342 75 C341.67 74.34 341.34 73.68 341 73 C340.43490723 72.98018066 339.86981445 72.96036133 339.28759766 72.93994141 C336.73292003 72.84481764 334.17907459 72.73508942 331.625 72.625 C330.73554687 72.5940625 329.84609375 72.563125 328.9296875 72.53125 C328.07890625 72.49257813 327.228125 72.45390625 326.3515625 72.4140625 C325.17327881 72.36693115 325.17327881 72.36693115 323.97119141 72.31884766 C322 72 322 72 320 70 C317.4036808 69.61984012 314.8337665 69.49404686 312.21484375 69.34375 C311.11849609 69.17359375 311.11849609 69.17359375 310 69 C309.67 68.34 309.34 67.68 309 67 C307.10466658 66.53476937 307.10466658 66.53476937 304.9375 66.375 C302.9884375 66.189375 302.9884375 66.189375 301 66 C301 65.34 301 64.68 301 64 C298.36 64 295.72 64 293 64 C292.67 63.01 292.34 62.02 292 61 C282.76 61 273.52 61 264 61 C263.67 60.34 263.34 59.68 263 59 C260.28553021 58.68758545 257.66090639 58.48663408 254.9375 58.375 C254.17888672 58.33632813 253.42027344 58.29765625 252.63867188 58.2578125 C250.75952805 58.16326438 248.87979664 58.08053244 247 58 C246.67 57.01 246.34 56.02 246 55 C242.37 55 238.74 55 235 55 C234.67 54.34 234.34 53.68 234 53 C231.44508177 52.60786962 231.44508177 52.60786962 228.5 52.5 C225.46875 52.34375 225.46875 52.34375 223 52 C222.67 51.34 222.34 50.68 222 50 C206.16 49.67 190.32 49.34 174 49 C173.67 48.34 173.34 47.68 173 47 C143.3 46.505 143.3 46.505 113 46 C112.67 45.34 112.34 44.68 112 44 C74.05 43.67 36.1 43.34 -3 43 C-3.33 42.34 -3.66 41.68 -4 41 C-6.33247761 40.66073053 -8.66585471 40.32759934 -11 40 C-14.68003577 36.31996423 -14.27487285 31.54448629 -14.5625 26.5625 C-14.6042334 25.86108887 -14.6459668 25.15967773 -14.68896484 24.43701172 C-15.68926509 6.37853018 -15.68926509 6.37853018 -14 3 C-9.31604754 1.85757257 -4.78644729 1.91747505 0 2 C0 1.34 0 0.68 0 0 Z " fill="#1196D4" transform="translate(595,506)"/>
<path d="M0 0 C1.09920273 0.00222061 2.19840546 0.00444122 3.33091736 0.00672913 C5.19273399 0.00684242 5.19273399 0.00684242 7.09216309 0.00695801 C8.45682311 0.01206541 9.82148274 0.01728142 11.18614197 0.02259827 C12.57476755 0.02446251 13.96339379 0.02588638 15.35202026 0.02688599 C19.01319686 0.03071065 22.67433402 0.04054048 26.335495 0.05158997 C30.06890835 0.06180519 33.80232805 0.06638384 37.53575134 0.07142639 C44.86584748 0.08216281 52.19591108 0.0992386 59.52598572 0.12025452 C59.52598572 0.78025452 59.52598572 1.44025452 59.52598572 2.12025452 C60.63973572 2.24400452 61.75348572 2.36775452 62.90098572 2.49525452 C66.52598572 3.12025452 66.52598572 3.12025452 68.52598572 5.12025452 C69.120224 7.60707092 69.120224 7.60707092 69.59629822 10.72181702 C69.85733337 12.41757874 69.85733337 12.41757874 70.12364197 14.14759827 C70.38467712 15.92843811 70.38467712 15.92843811 70.65098572 17.74525452 C70.83274353 18.90927795 71.01450134 20.07330139 71.20176697 21.27259827 C73.73598605 38.09752648 73.73598605 38.09752648 71.52598572 43.12025452 C70.04098572 43.61525452 70.04098572 43.61525452 68.52598572 44.12025452 C68.03098572 45.11025452 68.03098572 45.11025452 67.52598572 46.12025452 C64.16174961 46.51817492 60.81608247 46.62938074 57.43223572 46.77650452 C56.47317322 46.88994202 55.51411072 47.00337952 54.52598572 47.12025452 C54.03098572 48.11025452 54.03098572 48.11025452 53.52598572 49.12025452 C45.93598572 49.12025452 38.34598572 49.12025452 30.52598572 49.12025452 C30.19598572 50.11025452 29.86598572 51.10025452 29.52598572 52.12025452 C28.81571228 52.16923889 28.10543884 52.21822327 27.37364197 52.26869202 C26.45454041 52.34345764 25.53543884 52.41822327 24.58848572 52.49525452 C23.21370056 52.59966858 23.21370056 52.59966858 21.81114197 52.70619202 C20.67998962 52.91115295 20.67998962 52.91115295 19.52598572 53.12025452 C19.03098572 54.11025452 19.03098572 54.11025452 18.52598572 55.12025452 C13.90598572 55.12025452 9.28598572 55.12025452 4.52598572 55.12025452 C4.19598572 56.11025452 3.86598572 57.10025452 3.52598572 58.12025452 C-8.84901428 58.61525452 -8.84901428 58.61525452 -21.47401428 59.12025452 C-21.80401428 59.78025452 -22.13401428 60.44025452 -22.47401428 61.12025452 C-30.06401428 61.12025452 -37.65401428 61.12025452 -45.47401428 61.12025452 C-46.47401428 57.12025452 -46.47401428 57.12025452 -46.47401428 55.12025452 C-45.48401428 54.62525452 -45.48401428 54.62525452 -44.47401428 54.12025452 C-44.37088928 53.35712952 -44.26776428 52.59400452 -44.16151428 51.80775452 C-43.2440578 48.22133373 -41.30894353 47.38819792 -38.47401428 45.12025452 C-37.59458024 42.48564504 -37.59458024 42.48564504 -37.47401428 40.12025452 C-36.48401428 40.12025452 -35.49401428 40.12025452 -34.47401428 40.12025452 C-34.47401428 37.48025452 -34.47401428 34.84025452 -34.47401428 32.12025452 C-33.48401428 31.79025452 -32.49401428 31.46025452 -31.47401428 31.12025452 C-31.47401428 28.48025452 -31.47401428 25.84025452 -31.47401428 23.12025452 C-30.81401428 22.79025452 -30.15401428 22.46025452 -29.47401428 22.12025452 C-28.81846309 19.59292217 -28.81846309 19.59292217 -28.47401428 17.12025452 C-27.81401428 17.12025452 -27.15401428 17.12025452 -26.47401428 17.12025452 C-26.14401428 16.13025452 -25.81401428 15.14025452 -25.47401428 14.12025452 C-24.81401428 13.79025452 -24.15401428 13.46025452 -23.47401428 13.12025452 C-22.81846309 10.59292217 -22.81846309 10.59292217 -22.47401428 8.12025452 C-21.81401428 8.12025452 -21.15401428 8.12025452 -20.47401428 8.12025452 C-20.14401428 7.13025452 -19.81401428 6.14025452 -19.47401428 5.12025452 C-18.81401428 5.12025452 -18.15401428 5.12025452 -17.47401428 5.12025452 C-17.47401428 4.46025452 -17.47401428 3.80025452 -17.47401428 3.12025452 C-13.98489829 1.37569652 -9.97659633 1.65788186 -6.12635803 1.40150452 C-3.18846911 1.08997579 -2.89771213 0.14084922 0 0 Z " fill="#1197D5" transform="translate(470.47401428222656,505.87974548339844)"/>
<path d="M0 0 C0.99 0.33 1.98 0.66 3 1 C2.96519531 1.61488281 2.93039062 2.22976563 2.89453125 2.86328125 C2.86746094 3.67152344 2.84039062 4.47976563 2.8125 5.3125 C2.77769531 6.11300781 2.74289062 6.91351562 2.70703125 7.73828125 C2.85456978 10.00312281 2.85456978 10.00312281 4 11.75 C7.16310526 13.72694079 10.55956849 13.57660253 14.1875 13.6875 C14.93708984 13.72166016 15.68667969 13.75582031 16.45898438 13.79101562 C18.30546838 13.87334294 20.15270994 13.93835281 22 14 C22.33 14.99 22.66 15.98 23 17 C29.6 17 36.2 17 43 17 C43.495 17.99 43.495 17.99 44 19 C44.825 19.165 45.65 19.33 46.5 19.5 C47.325 19.665 48.15 19.83 49 20 C49.495 20.99 49.495 20.99 50 22 C51.64991582 22.70710678 53.3207762 23.36562656 55 24 C55.91031982 24.50257324 56.82063965 25.00514648 57.75854492 25.52294922 C61.27112615 27.12354547 63.83822779 27.48669949 67.67578125 27.6953125 C68.91521484 27.77136719 70.15464844 27.84742188 71.43164062 27.92578125 C72.71232422 27.99152344 73.99300781 28.05726563 75.3125 28.125 C77.8713122 28.269623 80.42992394 28.4178542 82.98828125 28.5703125 C84.11790283 28.62977051 85.24752441 28.68922852 86.41137695 28.75048828 C89 29 89 29 90 30 C92.32817964 30.36760731 94.6618385 30.70241581 97 31 C97.495 32.485 97.495 32.485 98 34 C99.485 34.495 99.485 34.495 101 35 C101 35.66 101 36.32 101 37 C96.545 37.495 96.545 37.495 92 38 C92 38.66 92 39.32 92 40 C72.24466552 40.88573633 52.76115644 41.02368965 33 40 C33 39.34 33 38.68 33 38 C31.97519531 38.01160156 30.95039063 38.02320313 29.89453125 38.03515625 C28.533856 38.04454022 27.17317876 38.05363977 25.8125 38.0625 C25.13896484 38.07087891 24.46542969 38.07925781 23.77148438 38.08789062 C20.04565869 38.10606538 16.6211958 37.89299392 13 37 C13 36.34 13 35.68 13 35 C12.01 35 11.02 35 10 35 C10 34.01 10 33.02 10 32 C9.01 31.67 8.02 31.34 7 31 C7 29.35 7 27.7 7 26 C2.71 26 -1.58 26 -6 26 C-6.50212051 19.97455391 -5.12689062 16.14869539 -2 11 C-1.67 10.67 -1.34 10.34 -1 10 C-0.76712992 8.31816052 -0.58735834 6.6287584 -0.4375 4.9375 C-0.35371094 4.01839844 -0.26992188 3.09929688 -0.18359375 2.15234375 C-0.12300781 1.44207031 -0.06242187 0.73179687 0 0 Z " fill="#1196D4" transform="translate(307,784)"/>
<path d="M0 0 C0.66 0 1.32 0 2 0 C1.96519531 1.13179687 1.93039062 2.26359375 1.89453125 3.4296875 C1.86639664 4.91144353 1.83909613 6.39321556 1.8125 7.875 C1.78736328 8.62136719 1.76222656 9.36773437 1.73632812 10.13671875 C1.6701236 12.56221828 1.6701236 12.56221828 2 16 C2.99 16.66 3.98 17.32 5 18 C5.30883789 19.84765625 5.30883789 19.84765625 5.22265625 22.0625 C5.20396484 22.85914063 5.18527344 23.65578125 5.16601562 24.4765625 C5.13185547 25.30929688 5.09769531 26.14203125 5.0625 27 C5.00263946 28.64552813 4.9514419 30.2914011 4.91015625 31.9375 C4.88058838 32.66839844 4.85102051 33.39929688 4.82055664 34.15234375 C4.82679526 36.25042405 4.82679526 36.25042405 7 38 C7.22091268 40.48113493 7.32516239 42.85967872 7.34375 45.34375 C7.3583728 46.06864624 7.37299561 46.79354248 7.38806152 47.54040527 C7.45041838 50.64671305 7.48995643 53.75322173 7.53173828 56.85986328 C7.56542687 59.12553931 7.61055052 61.39078966 7.65625 63.65625 C7.6615271 64.36148804 7.6668042 65.06672607 7.67224121 65.79333496 C7.64421053 69.84541177 7.64421053 69.84541177 10 73 C10.2784729 75.51834106 10.2784729 75.51834106 10.31884766 78.73486328 C10.33871735 79.93595734 10.35858704 81.13705139 10.37905884 82.37454224 C10.39061005 83.67664642 10.40216125 84.97875061 10.4140625 86.3203125 C10.4327677 87.66268107 10.45234062 89.00503781 10.4727478 90.34738159 C10.52414391 93.88186678 10.56372926 97.41639012 10.60089111 100.9510498 C10.64088414 104.55730688 10.69199783 108.16340422 10.7421875 111.76953125 C10.8390351 118.84623729 10.92341142 125.92304339 11 133 C10.01 133 9.02 133 8 133 C8 113.2 8 93.4 8 73 C7.01 72.67 6.02 72.34 5 72 C5 60.78 5 49.56 5 38 C4.01 38 3.02 38 2 38 C2.02356567 37.15236084 2.02356567 37.15236084 2.04760742 36.28759766 C2.10987045 33.73349977 2.14896136 31.17956129 2.1875 28.625 C2.21263672 27.73554688 2.23777344 26.84609375 2.26367188 25.9296875 C2.27333984 25.07890625 2.28300781 24.228125 2.29296875 23.3515625 C2.3086792 22.56604004 2.32438965 21.78051758 2.34057617 20.97119141 C2.22818604 20.32069824 2.1157959 19.67020508 2 19 C1.01 18.34 0.02 17.68 -1 17 C-1.24950462 14.40990446 -1.32719737 12.0812871 -1.25 9.5 C-1.24484375 8.81035156 -1.2396875 8.12070313 -1.234375 7.41015625 C-1.15483526 2.30967052 -1.15483526 2.30967052 0 0 Z " fill="#1197D5" transform="translate(545,187)"/>
<path d="M0 0 C0.66 0 1.32 0 2 0 C2 20.13 2 40.26 2 61 C1.01 60.67 0.02 60.34 -1 60 C-1.02316561 52.61994209 -1.04093664 45.23989201 -1.05181217 37.85980511 C-1.05703175 34.43297225 -1.06411265 31.00616425 -1.07543945 27.5793457 C-1.08837846 23.64013974 -1.09323586 19.70094387 -1.09765625 15.76171875 C-1.10281754 14.53039719 -1.10797882 13.29907562 -1.11329651 12.03044128 C-1.11337204 10.88948502 -1.11344757 9.74852875 -1.11352539 8.57299805 C-1.11685631 7.06409248 -1.11685631 7.06409248 -1.12025452 5.52470398 C-1 3 -1 3 0 0 Z " fill="#1197D5" transform="translate(542,126)"/>
<path d="M0 0 C1.08525027 3.42840425 1.02021474 6.36616186 0.75 9.9375 C0.68296875 10.95714844 0.6159375 11.97679687 0.546875 13.02734375 C-0.05371063 16.29195564 -1.192851 18.24536878 -3 21 C-3.71143088 22.98451771 -4.38991336 24.98202112 -5 27 C-5.66 26.67 -6.32 26.34 -7 26 C-6.93971999 23.43508544 -6.85262053 20.87578243 -6.75 18.3125 C-6.73582031 17.59126953 -6.72164063 16.87003906 -6.70703125 16.12695312 C-6.47962506 11.14675753 -5.52335985 8.74018199 -2 5 C-0.75983331 2.3205355 -0.75983331 2.3205355 0 0 Z " fill="#C9343A" transform="translate(333,593)"/>
<path d="M0 0 C0.99 0.33 1.98 0.66 3 1 C2.67 1.33 2.34 1.66 2 2 C1.91156207 4.44830426 1.88471248 6.86820599 1.90234375 9.31640625 C1.9037587 10.04746078 1.90517365 10.77851532 1.90663147 11.53172302 C1.91224592 13.87535632 1.92480078 16.21889539 1.9375 18.5625 C1.94251314 20.14778508 1.94707637 21.73307166 1.95117188 23.31835938 C1.96222003 27.2122761 1.97949428 31.10612205 2 35 C1.01 35 0.02 35 -1 35 C-1.0246519 30.17619198 -1.04283693 25.35242033 -1.05493164 20.52856445 C-1.05997174 18.88630536 -1.06680378 17.24405077 -1.07543945 15.60180664 C-1.08751926 13.24624521 -1.09323139 10.89074291 -1.09765625 8.53515625 C-1.10281754 7.79660904 -1.10797882 7.05806183 -1.11329651 6.2971344 C-1.1134925 4.53101912 -1.06194719 2.76502854 -1 1 C-0.67 0.67 -0.34 0.34 0 0 Z " fill="#1197D5" transform="translate(577,546)"/>
<path d="M0 0 C1.67411333 4.62011797 -0.05744858 7.96344284 -1.75 12.359375 C-3.38901543 15.82179509 -4.96843527 17.68643744 -8 20 C-8.66 20 -9.32 20 -10 20 C-9.71125 19.46375 -9.4225 18.9275 -9.125 18.375 C-6.74657833 13.35388758 -5.66061166 8.50509719 -5 3 C-4.360625 2.87625 -3.72125 2.7525 -3.0625 2.625 C-2.0415625 2.315625 -2.0415625 2.315625 -1 2 C-0.67 1.34 -0.34 0.68 0 0 Z " fill="#CD3237" transform="translate(280,756)"/>
<path d="M0 0 C0.125 2.875 0.125 2.875 0 6 C-0.66 6.66 -1.32 7.32 -2 8 C-2.69437747 9.99054876 -3.35610218 11.99255385 -4 14 C-4.87798642 16.44439402 -5.85011618 18.65423701 -7 21 C-7.99 21.33 -8.98 21.66 -10 22 C-9.505 17.545 -9.505 17.545 -9 13 C-8.01 13 -7.02 13 -6 13 C-6 11.02 -6 9.04 -6 7 C-5.01 7 -4.02 7 -3 7 C-3 5.02 -3 3.04 -3 1 C-1 0 -1 0 0 0 Z " fill="#C9343A" transform="translate(292,725)"/>
<path d="M0 0 C0.66 0.33 1.32 0.66 2 1 C1.89037184 4.1257396 1.75968759 7.25024781 1.625 10.375 C1.5940625 11.26445313 1.563125 12.15390625 1.53125 13.0703125 C1.47324219 14.34648438 1.47324219 14.34648438 1.4140625 15.6484375 C1.36693115 16.82672119 1.36693115 16.82672119 1.31884766 18.02880859 C1 20 1 20 -1 22 C-1.16681109 25.08347826 -1.16681109 25.08347826 -1 28 C-1.99 28 -2.98 28 -4 28 C-4 25.69 -4 23.38 -4 21 C-3.01 20.67 -2.02 20.34 -1 20 C-1.00523682 19.42967041 -1.01047363 18.85934082 -1.01586914 18.27172852 C-1.03658221 15.70199677 -1.0496419 13.13228253 -1.0625 10.5625 C-1.07087891 9.66466797 -1.07925781 8.76683594 -1.08789062 7.84179688 C-1.09111328 6.98779297 -1.09433594 6.13378906 -1.09765625 5.25390625 C-1.10289307 4.46314697 -1.10812988 3.6723877 -1.11352539 2.85766602 C-1 1 -1 1 0 0 Z " fill="#1197D5" transform="translate(273,865)"/>
<path d="M0 0 C0.99 0.33 1.98 0.66 3 1 C2.88601335 2.62580966 2.75844341 4.25067157 2.625 5.875 C2.55539062 6.77992188 2.48578125 7.68484375 2.4140625 8.6171875 C2 11 2 11 0 13 C-0.71247732 14.6476038 -1.37400383 16.31763529 -2 18 C-2.66666667 19.66666667 -3.33333333 21.33333333 -4 23 C-4.66 23 -5.32 23 -6 23 C-6 21.02 -6 19.04 -6 17 C-5.01 17 -4.02 17 -3 17 C-3 15.35 -3 13.7 -3 12 C-2.01 11.67 -1.02 11.34 0 11 C0 7.37 0 3.74 0 0 Z " fill="#1197D5" transform="translate(388,590)"/>
<path d="M0 0 C0.99 0.33 1.98 0.66 3 1 C2.88601335 2.62580966 2.75844341 4.25067157 2.625 5.875 C2.55539062 6.77992188 2.48578125 7.68484375 2.4140625 8.6171875 C2 11 2 11 0 13 C-1.50910494 16.28452252 -2.39016135 19.44260787 -3 23 C-3.66 23 -4.32 23 -5 23 C-5.33 21.35 -5.66 19.7 -6 18 C-5.01 17.67 -4.02 17.34 -3 17 C-3 15.35 -3 13.7 -3 12 C-2.01 11.67 -1.02 11.34 0 11 C0 7.37 0 3.74 0 0 Z " fill="#1197D5" transform="translate(330,726)"/>
<path d="M0 0 C0.99 0.33 1.98 0.66 3 1 C2.67 4.3 2.34 7.6 2 11 C1.01 11.33 0.02 11.66 -1 12 C-1 14.64 -1 17.28 -1 20 C-1.66 20 -2.32 20 -3 20 C-3 17.36 -3 14.72 -3 12 C-2.01 11.67 -1.02 11.34 0 11 C-0.33 10.34 -0.66 9.68 -1 9 C-1.18704404 6.30986661 -1.08581391 3.70313823 -1 1 C-0.67 0.67 -0.34 0.34 0 0 Z " fill="#1197D5" transform="translate(319,752)"/>
<path d="M0 0 C0.66 0 1.32 0 2 0 C2 5.61 2 11.22 2 17 C1.01 16.67 0.02 16.34 -1 16 C-1.02692484 13.70839681 -1.04636124 11.41670454 -1.0625 9.125 C-1.07410156 7.84882813 -1.08570313 6.57265625 -1.09765625 5.2578125 C-1 2 -1 2 0 0 Z " fill="#1197D5" transform="translate(571,471)"/>
<path d="M0 0 C1.32 0.33 2.64 0.66 4 1 C3.125 6.875 3.125 6.875 2 8 C1.8453125 9.7015625 1.8453125 9.7015625 1.6875 11.4375 C1.460625 12.613125 1.23375 13.78875 1 15 C-0.98 15.99 -0.98 15.99 -3 17 C-2.67 14.03 -2.34 11.06 -2 8 C-1.34 8 -0.68 8 0 8 C0 5.36 0 2.72 0 0 Z " fill="#C5363E" transform="translate(320,629)"/>
<path d="M0 0 C0.99 0 1.98 0 3 0 C3 2.64 3 5.28 3 8 C2.01 8.33 1.02 8.66 0 9 C0 11.64 0 14.28 0 17 C-0.66 17 -1.32 17 -2 17 C-3.125 11.375 -3.125 11.375 -2 8 C-1.01 8 -0.02 8 1 8 C0.67 7.34 0.34 6.68 0 6 C-0.039992 4.00039988 -0.04346799 1.99952758 0 0 Z " fill="#1197D5" transform="translate(376,619)"/>
<path d="M0 0 C0.66 0 1.32 0 2 0 C2.6269791 10.10132996 2.6269791 10.10132996 0.125 13.6875 C-2 15 -2 15 -4 15 C-4 16.65 -4 18.3 -4 20 C-4.66 20 -5.32 20 -6 20 C-6 18.02 -6 16.04 -6 14 C-5.01 14 -4.02 14 -3 14 C-3 13.01 -3 12.02 -3 11 C-2.01 11 -1.02 11 0 11 C0 7.37 0 3.74 0 0 Z " fill="#1197D5" transform="translate(423,509)"/>
<path d="M0 0 C0.99 0.33 1.98 0.66 3 1 C2.98839844 2.27617187 2.97679687 3.55234375 2.96484375 4.8671875 C2.95546583 6.53645687 2.94636563 8.20572783 2.9375 9.875 C2.92912109 10.71675781 2.92074219 11.55851562 2.91210938 12.42578125 C2.90727539 13.63427734 2.90727539 13.63427734 2.90234375 14.8671875 C2.89710693 15.61081543 2.89187012 16.35444336 2.88647461 17.12060547 C2.88213364 19.09132568 2.88213364 19.09132568 4 21 C2.68 20.67 1.36 20.34 0 20 C0 13.4 0 6.8 0 0 Z " fill="#1197D5" transform="translate(573,488)"/>
<path d="M0 0 C0.99 0 1.98 0 3 0 C3 3.63 3 7.26 3 11 C2.01 11.33 1.02 11.66 0 12 C0 13.65 0 15.3 0 17 C-0.66 17 -1.32 17 -2 17 C-2.33 15.35 -2.66 13.7 -3 12 C-2.01 11.34 -1.02 10.68 0 10 C0.36416047 7.56306689 0.36416047 7.56306689 0.1875 4.875 C0.16042969 3.96492187 0.13335937 3.05484375 0.10546875 2.1171875 C0.05326172 1.06917969 0.05326172 1.06917969 0 0 Z " fill="#1197D5" transform="translate(353,671)"/>
<path d="M0 0 C0.33 0 0.66 0 1 0 C1.125 3.375 1.125 3.375 1 7 C0.34 7.66 -0.32 8.32 -1 9 C-2.50910494 12.28452252 -3.39016135 15.44260787 -4 19 C-4.99 18.67 -5.98 18.34 -7 18 C-6.67 16.35 -6.34 14.7 -6 13 C-5.34 13 -4.68 13 -4 13 C-3.896875 12.34 -3.79375 11.68 -3.6875 11 C-2.80786436 7.16158991 -1.43030104 3.66903309 0 0 Z " fill="#1197D5" transform="translate(247,927)"/>
<path d="M0 0 C0.99 0.33 1.98 0.66 3 1 C2.88512252 2.58409994 2.75765492 4.16728963 2.625 5.75 C2.55539062 6.63171875 2.48578125 7.5134375 2.4140625 8.421875 C1.99952167 11.00297827 1.22139001 12.71609999 0 15 C0 15.66 0 16.32 0 17 C-0.99 16.67 -1.98 16.34 -3 16 C-2.67 14.35 -2.34 12.7 -2 11 C-1.34 11 -0.68 11 0 11 C0 7.37 0 3.74 0 0 Z " fill="#1197D5" transform="translate(411,535)"/>
<path d="M0 0 C0.66 0 1.32 0 2 0 C2 1.98 2 3.96 2 6 C1.01 6.33 0.02 6.66 -1 7 C-0.97679687 7.62648438 -0.95359375 8.25296875 -0.9296875 8.8984375 C-0.91164063 9.71570313 -0.89359375 10.53296875 -0.875 11.375 C-0.85179687 12.18710937 -0.82859375 12.99921875 -0.8046875 13.8359375 C-1 16 -1 16 -3 18 C-4.35015859 13.94952424 -3.62084998 11.2079832 -3 7 C-2.01 6.67 -1.02 6.34 0 6 C0 4.02 0 2.04 0 0 Z " fill="#D82C2E" transform="translate(307,662)"/>
<path d="M0 0 C0.99 0.33 1.98 0.66 3 1 C2.53044382 5.0694869 2.10290342 8.45135047 0 12 C-0.33 12.66 -0.66 13.32 -1 14 C-1.66 14 -2.32 14 -3 14 C-3 12.02 -3 10.04 -3 8 C-2.01 8 -1.02 8 0 8 C0 5.36 0 2.72 0 0 Z " fill="#1197D5" transform="translate(469,402)"/>
<path d="M0 0 C0.66 0 1.32 0 2 0 C2 1.65 2 3.3 2 5 C1.01 5.33 0.02 5.66 -1 6 C-1.33 6.99 -1.66 7.98 -2 9 C-2.66 9 -3.32 9 -4 9 C-4 10.65 -4 12.3 -4 14 C-4.66 14 -5.32 14 -6 14 C-6 12.35 -6 10.7 -6 9 C-5.01 8.67 -4.02 8.34 -3 8 C-2.67 7.01 -2.34 6.02 -2 5 C-1.34 5 -0.68 5 0 5 C-0.2784375 4.0409375 -0.2784375 4.0409375 -0.5625 3.0625 C-0.706875 2.381875 -0.85125 1.70125 -1 1 C-0.67 0.67 -0.34 0.34 0 0 Z " fill="#1197D5" transform="translate(264,897)"/>
<path d="M0 0 C0.66 0 1.32 0 2 0 C2 1.98 2 3.96 2 6 C1.01 6 0.02 6 -1 6 C-1.33 8.97 -1.66 11.94 -2 15 C-4 11 -4 11 -3.125 7.75 C-2.568125 6.38875 -2.568125 6.38875 -2 5 C-1.34 5 -0.68 5 0 5 C0 3.35 0 1.7 0 0 Z " fill="#D82C2E" transform="translate(284,732)"/>
<path d="M0 0 C0.66 0 1.32 0 2 0 C2 3.63 2 7.26 2 11 C1.34 11 0.68 11 0 11 C-1.49297212 8.01405576 -1.11755228 5.29146376 -1 2 C-0.67 1.34 -0.34 0.68 0 0 Z " fill="#1197D5" transform="translate(458,428)"/>
<path d="M0 0 C1.16306443 3.54950034 0.92365049 6.55823948 0.5625 10.25 C0.40974609 11.86648438 0.40974609 11.86648438 0.25390625 13.515625 C0.17011719 14.33546875 0.08632813 15.1553125 0 16 C-0.33 16 -0.66 16 -1 16 C-3.43326039 7.14223195 -3.43326039 7.14223195 -1.625 2.375 C-1.08875 1.59125 -0.5525 0.8075 0 0 Z " fill="#BA3C47" transform="translate(333,593)"/>
<path d="M0 0 C0.66 0 1.32 0 2 0 C1.34 4.29 0.68 8.58 0 13 C-0.66 13 -1.32 13 -2 13 C-2.05391993 11.20866022 -2.09275571 9.41686101 -2.125 7.625 C-2.14820313 6.62726562 -2.17140625 5.62953125 -2.1953125 4.6015625 C-2 2 -2 2 0 0 Z " fill="#D72C2E" transform="translate(329,601)"/>
<path d="M0 0 C0.66 1.32 1.32 2.64 2 4 C0.69593116 6.01920337 -0.63823419 8.01924973 -2 10 C-2.33 10 -2.66 10 -3 10 C-3 7.36 -3 4.72 -3 2 C-2.01 2 -1.02 2 0 2 C0 1.34 0 0.68 0 0 Z " fill="#CE3136" transform="translate(75,643)"/>
<path d="M0 0 C0.66 0 1.32 0 2 0 C2.33663062 3.70293685 2.47736015 5.39534381 0.125 8.375 C-2 10 -2 10 -4 10 C-3.71125 9.46375 -3.4225 8.9275 -3.125 8.375 C-1.83288192 5.64719516 -0.91441408 2.87387282 0 0 Z " fill="#A84657" transform="translate(274,766)"/>
<path d="M0 0 C0.99 0.33 1.98 0.66 3 1 C2.67 3.64 2.34 6.28 2 9 C1.34 9 0.68 9 0 9 C-1.36623674 6.26752652 -1.128426 4.01801098 -1 1 C-0.67 0.67 -0.34 0.34 0 0 Z " fill="#1197D5" transform="translate(432,491)"/>
<path d="M0 0 C0 2.64 0 5.28 0 8 C-0.99 8.33 -1.98 8.66 -3 9 C-3 6.36 -3 3.72 -3 1 C-1 0 -1 0 0 0 Z " fill="#C9343A" transform="translate(318,647)"/>
<path d="M0 0 C0.99 0 1.98 0 3 0 C3 2.64 3 5.28 3 8 C2.01 8 1.02 8 0 8 C0 5.36 0 2.72 0 0 Z " fill="#1197D5" transform="translate(295,810)"/>
<path d="M0 0 C0.33 0 0.66 0 1 0 C1 2.97 1 5.94 1 9 C0.34 9 -0.32 9 -1 9 C-1.80967438 6.08517222 -2.21845993 4.53886783 -1.0625 1.6875 C-0.711875 1.130625 -0.36125 0.57375 0 0 Z " fill="#1197D5" transform="translate(236,954)"/>
<path d="M0 0 C0.66 0 1.32 0 2 0 C2 2.64 2 5.28 2 8 C1.34 8 0.68 8 0 8 C-0.79953138 4.71303767 -1.09658936 3.28976808 0 0 Z " fill="#1197D5" transform="translate(293,819)"/>
<path d="M0 0 C0.33 0.66 0.66 1.32 1 2 C1.66 2 2.32 2 3 2 C3 3.65 3 5.3 3 7 C2.01 7 1.02 7 0 7 C0 4.69 0 2.38 0 0 Z " fill="#BC3B45" transform="translate(326,612)"/>
<path d="M0 0 C0.99 0 1.98 0 3 0 C3 2.64 3 5.28 3 8 C2.34 8 1.68 8 1 8 C-0.35439668 5.29120665 -0.06501451 2.99066732 0 0 Z " fill="#1197D5" transform="translate(434,483)"/>
<path d="M0 0 C0.99 0.33 1.98 0.66 3 1 C3 3.31 3 5.62 3 8 C2.01 7.67 1.02 7.34 0 7 C0 4.69 0 2.38 0 0 Z " fill="#1197D5" transform="translate(492,347)"/>
<path d="" fill="#1197D5" transform="translate(0,0)"/>
<path d="" fill="#1197D5" transform="translate(0,0)"/>
<path d="" fill="#D92C2E" transform="translate(0,0)"/>
<path d="" fill="#D92C2E" transform="translate(0,0)"/>
</svg>
